/* XPM */
static char *result[] = {
/* columns rows colors chars-per-pixel */
"64 64 256 2 ",
"   c #3A2C18",
".  c #3E3216",
"X  c #282935",
"o  c #37353C",
"O  c #342F2B",
"+  c #1E1A23",
"@  c #43341C",
"#  c #49391B",
"$  c #4C3616",
"%  c #483826",
"&  c #453B3A",
"*  c #503031",
"=  c #663233",
"-  c #54183C",
";  c #4C4519",
":  c #53451A",
">  c #544B1B",
",  c #594A1B",
"<  c #59541D",
"1  c #4C400E",
"2  c #65481D",
"3  c #62561D",
"4  c #6F691D",
"5  c #4B4627",
"6  c #584924",
"7  c #5A5524",
"8  c #4A4438",
"9  c #554636",
"0  c #5B5636",
"q  c #674B27",
"w  c #665926",
"e  c #664B36",
"r  c #685538",
"t  c #765A39",
"y  c #76502A",
"u  c #686626",
"i  c #746926",
"p  c #797629",
"a  c #736937",
"s  c #3A3A47",
"d  c #2B385A",
"f  c #123460",
"g  c #591953",
"h  c #6F1556",
"j  c #423C47",
"k  c #552E4C",
"l  c #6C2955",
"z  c #6E1462",
"x  c #6E3169",
"c  c #571C64",
"v  c #3E4352",
"b  c #364D74",
"n  c #494548",
"m  c #564B48",
"M  c #5A544A",
"N  c #4A4D5C",
"B  c #464755",
"V  c #534B57",
"C  c #58545A",
"Z  c #4D515D",
"A  c #685849",
"S  c #765748",
"D  c #675958",
"F  c #6B4F4C",
"G  c #776648",
"H  c #6A6558",
"J  c #76665B",
"K  c #716C4E",
"L  c #4D5262",
"P  c #585967",
"I  c #51556C",
"U  c #645D62",
"Y  c #665C68",
"T  c #72516E",
"R  c #5B6072",
"E  c #686469",
"W  c #746968",
"Q  c #686878",
"!  c #746C76",
"~  c #7A7579",
"^  c #79756D",
"/  c #93501A",
"(  c #91542E",
")  c #A65628",
"_  c #876435",
"`  c #8B7230",
"'  c #AE6831",
"]  c #A2571B",
"[  c #8F3173",
"{  c #851865",
"}  c #8B544C",
"|  c #886748",
" . c #96784A",
".. c #876A59",
"X. c #887855",
"o. c #997759",
"O. c #906D51",
"+. c #AA7853",
"@. c #8B5270",
"#. c #887766",
"$. c #957965",
"%. c #887876",
"&. c #967975",
"*. c #886A72",
"=. c #AC7A6A",
"-. c #AB4942",
";. c #D6796D",
":. c #962430",
">. c #88852C",
",. c #8A8734",
"<. c #928C37",
"1. c #989737",
"2. c #908D31",
"3. c #AB9335",
"4. c #A7A73A",
"5. c #B6B43E",
"6. c #B6AA36",
"7. c #C59634",
"8. c #CBA72B",
"9. c #CEA832",
"0. c #9B9845",
"q. c #948952",
"w. c #A98746",
"e. c #A88958",
"r. c #B28E57",
"t. c #B5935C",
"y. c #AB974C",
"u. c #A9A544",
"i. c #B4AC4B",
"p. c #B8B747",
"a. c #BBB454",
"s. c #B4AD4C",
"d. c #99867A",
"f. c #8F8672",
"g. c #A78866",
"h. c #B99767",
"j. c #A7977A",
"k. c #BA9979",
"l. c #B08C6F",
"z. c #B3A276",
"x. c #C3BC59",
"c. c #C5BB47",
"v. c #C29A6A",
"b. c #C49D79",
"n. c #D49C6F",
"m. c #CCA578",
"M. c #D4AA7A",
"N. c #CAA76A",
"B. c #DBA067",
"V. c #C9C45B",
"C. c #CAC34E",
"Z. c #D2CC66",
"A. c #54688A",
"S. c #686C85",
"D. c #777685",
"F. c #777996",
"G. c #6B738C",
"H. c #6C6290",
"J. c #375187",
"K. c #915589",
"L. c #877C86",
"P. c #927290",
"I. c #AB708D",
"U. c #BA7DB0",
"Y. c #992680",
"T. c #7D8291",
"R. c #7B85A7",
"E. c #4681B2",
"W. c #6999D1",
"Q. c #878588",
"!. c #968987",
"~. c #888997",
"^. c #958B94",
"/. c #999598",
"(. c #95938E",
"). c #A68889",
"_. c #A8968A",
"`. c #B99A85",
"'. c #A79897",
"]. c #AF8D94",
"[. c #BDA489",
"{. c #B8A798",
"}. c #ADA890",
"|. c #878CA4",
" X c #8C93A7",
".X c #9799A8",
"XX c #969BB3",
"oX c #8F8FAF",
"OX c #A49CA6",
"+X c #B192AA",
"@X c #9CA3B7",
"#X c #9EA0A4",
"$X c #A9A4AB",
"%X c #A8A8B8",
"&X c #B3ABB7",
"*X c #B7B5BA",
"=X c #B3AEAA",
"-X c #CC9788",
";X c #C4A588",
":X c #D7AC86",
">X c #DAB48B",
",X c #D7B389",
"<X c #C7A995",
"1X c #DAB792",
"2X c #C8B296",
"3X c #E9B796",
"4X c #CAB8AE",
"5X c #E9B3A5",
"6X c #CD8FA7",
"7X c #D3CD92",
"8X c #D2C9B1",
"9X c #F3CDB1",
"0X c #EAE5B9",
"qX c #E9E2AC",
"wX c #9CA9C9",
"eX c #9DB0D1",
"rX c #A5ACC3",
"tX c #ABB4C9",
"yX c #B6B9C9",
"uX c #B4BCD2",
"iX c #B8BBD6",
"pX c #ADAFD3",
"aX c #A2A6CF",
"sX c #C6BBCF",
"dX c #C7AED4",
"fX c #BCC4D8",
"gX c #BBC2CF",
"hX c #B8C4E8",
"jX c #C5C3C8",
"kX c #C5C8D9",
"lX c #D8D6DA",
"zX c #D7D1CF",
"xX c #F3D9CC",
"cX c #EBE6D3",
"vX c #C7CCE3",
"bX c #CCD4EA",
"nX c #CCD3E5",
"mX c #D4DAEB",
"MX c #DADEEB",
"NX c #D6D9E6",
"BX c #D6DDF3",
"VX c #C9D3F4",
"CX c #DDE2EC",
"ZX c #DCE3F3",
"AX c #DAE4FB",
"SX c #E1E4EC",
"DX c #E9E8E9",
"FX c #E5E9F5",
"GX c #E4ECFD",
"HX c #E6EAF8",
"JX c #EDF2FE",
"KX c #F2F5FE",
"LX c #F8FAFF",
"PX c #FAEFEC",
"IX c #E8DCE0",
"UX c None",
/* pixels */
"1XM.8.8.9.9.c.2X2X<X2X4XvXbXVXBXAXZXAXGXGXAXbXAXkXY.Y.z h [ +X+XY.K.K.@.{ h %XGXZXAXZXGXGXGXFXFXlXzXg.#.7.9.n.>X1X1X1X1X>X>X>XUX",
",XM.9.8.9.8.9.,X;X<X<X{.iXbXiXXX X%X X XmXGXbXAXdX[ { { { [ K.6XH.[ [ [ [ { aXGXAXZXZXAXGXFXFXyX=X8X{.=Xi.6.N.:X1X1X1X>X>X>X>XUX",
">XB.9.8.8.8.8.;X<X;X[.[.yXbXyXQ A.@XQ Q vXGXmXAXvXz z z z K.I.I.x H.[ [ [ z &XHXZXZXNXFXFXFXSXkXlX$XA 3.q.1.N.:X1X1X1X>X>X>X>XUX",
">XM.9.8.8.8.8.m.[.[.[.k.$XbXtXS.G.oXR Q hXGXVXAXsXg g g g T D.T @.T l x x { +X%X~.~.~.NXFXSXCXSXIX,X' 7.y.X.N.,X>X>X>X:X:X:X>XUX",
">XM.9.8.9.8.8.M.;X;X[.k.'.bXuXG.R.vXF.Q kXGXbXAXvXl h h k T V Q L.! T C T x S.Q Q Y Y gXFXCXCXCXlX,X7.3.3. .v.:X,X,X,X:XM.M.:XUX",
"1XM.9.9.9.8.8.N.;X;X[.[.{.vXgXQ F.vXG.S.fXJXbXAXkX:.{ z l @.Q Q Y Q Y Q R I P Y Y B N *XDXDXCXCXNX,X' 3.3._ h.M.,X:X,X:XM.3XxXUX",
",XM.9.7.8.8.8.N.;X;X`.[.$XnXgXQ P.hXG.F.sXGXbXAXlXg z z g K.! C P C E %.I B B j v n V gXCXDXCXcXlXm.t.r.t.J l.:X:X,X:XM.1XIXDXUX",
">XM.9.w.7.7.7.B.;X;X;X;X}.kXgXP F.|.S.F.iXmXbXFXbXc z z K.P.P B j V V T P v B B o ! .XzXCXCXNXNX8X}.j.d.!.! l.M.:XM.,XM.8XxX8XUX",
">X:Xt.o.w.r.w.N.;X;X<X`._.yXkXU F.XXrXbX&X%.uXBXbXc c U.P.T V V V V B V C N N L k %XbXmXCXCXlXlXjXrX%X$XOXQ.;Xm.M.M.M.m.8X4X8XUX",
"1Xm.h.=.q.e.q.h.;X;X;X<X_.sXnXP XXNXlX8Xn.;X+XVXmX{ [ +XI L Y U Y V C Y Y I I I R oXbXfXgXfXzXkXjX&X&X^.$X.X;Xm.m.m.m.m.7X4X8XUX",
"<XM.h.g.w.e.e.h.;X;X;X`.=XfXfXL Q.4X[.<X3X5X<XsXvXI.6XU.T P Y Y Y Y T ! D.P I I R F.wXeXwX@XgXjXsX&X&X.XOX=Xm.m.m.m.k.v.z.z.k.UX",
"2Xm.l.*.o.+.*.t.;Xb.k.k.=XW.W.S.F.!.^.+X8XB.-XyXkXU.[ [ T C W L.W Q ! L.P.Y R S.G.Q  XwX@X@X#X=X4X!.U D.! ~ h.b.m.N.v.v.h.r.e.UX",
"_.M.l.$.$.+.$.v.m.`.m.`.).W.W.wXpX5X-X6X3XB.-X%XsXI.z h x Z E |.D.D.G.L.^.P Q S.F.Q R.gXtX.X.X$XsX'.U Y M W h.N.v.v.v.v.v.h.t.UX",
"j.M.g.&.o.+.%.l.;Xb.k.`.$.G.W.eXVXdXI.O.B.B.v.%XsX:X[ h V v I A.H.A.A.A.R.P S.G.F.G.T.wXgX@X X.X*X=X^.~.L.(.g.h.v.v.v.v.v.h.t.UX",
"l.:Xr.%.#.+.%.l.m.k.b.`.].Y J.pXnXsXW ..;Xl.!.-X-X=.J V N v J.A.A.R J.A.XXV S.F.F.F.G.G.T.*X.X$X*X}.'.*X*X=Xl.v.v.v.v.t.v.t.h.UX",
"<Xm.o.l.l.l.k.b.b.`.`.{.yX%XL rXkXOXY Y ! Q L.k.F F N N L ! (.$XL.*.L.iXzXY S.H.R.F.F.G.M %X$X*X}.y.q.$X&X{.l.r.h.h.v.v.v.v.v.UX",
"8Xm.k.n.n.b.b.l.j.!.+X&XyXkXE ! $X~ D L P P E ^.#.J B L R j.:XxX9X5XxXPXxX*.H.F.R.R.R.(.^  X#X}.0.4.<._.=X$X..#.`.j.j.d.g.g.q.UX",
":Xb.l.).j.*.P.=.].OX=X&XyXsXf.D P.J C P P P P Q D B v L R `.5XPXxX9X9XxX5XD H.F.R.XXXXQ.(./.#Xq.0.0.1.q.=XOX} &._.!.f.^ ! E M UX",
"$.Q A.G.^.} ).).+X&X&X%XyXsXq.A D A C P L P P Q D V B L H._.:X5X9X9X9X9X3XS F.oXaXeXeXR.(.(.(.2.0.<.,.q.}._.} .._.Q.E ! E D M UX",
"%.Q J.G.'.&.I.].+X%X$XOX&X*XO.e T F P N N L I Q n B N P ~.+X:X9X9X9X9X5X3XF L.aXhXhXfXR.#X(.f.1.1.0.>.>._.'.L.%._.f.W E E E E UX",
"^.L.J.G.=X&.I.).].f..X%X%X*X%.F T *.Q N B B B L L N L R oX&X;.3XxX9X9X9X3XF L.hXhXVXVXoX(.f.q.2.0.0.>.>.(.$XOX'.(.E ! W f.L.~ UX",
"$X/.J.oX$XP.I.].d.S %..X%X&XD.Q Q ~.Q.v B v v Z j N L R XXdX;.;.5X9XxX9X-X& F.VXVXBXAXpX(.q.0.1.1.,.>._.&XL.T F %./.! C E D.~ UX",
"$XOX/..XOXL.).].&.G ~ ~..X^.D.kXFXSX(.s v s B N N N L R rXvX6Xn.3X9X9X9X=.& S.BXAXGXJXVX.Xq.q.1.0.>.f.uXT - = - * ! Q.M C E E UX",
"$X$X$XOXOX%.&.'.!.D W ~ D.Y D.XXtXLXT.v s v B N N B P S.pXVX<XM.3X9X9X-X..9 R AXKXKXLXGXrX#.G <.2.q.gXG.g h h - O k L.! V 8 j UX",
"'.$XOXOX/.%.K ~.Q.E M E C R D.Q ! kX~.s s v B N L ~ /.(.tXAXjX:X3X3X:X=.O.k P MXKXLXLXLXvX).O.<.2.}.@Xg l l { - k k P.L.V m n UX",
"_.%XOXOX(.D.R ! H 5 8 H 8 Q $XQ E ~./.L v B B N $XlX4X(.gXGXAX/.$.n.:Xl.O.F C mXLXLXLXLXBXOX} <.>.=XK.z h l l k - k @.%.D o j UX",
"d.$X.XOX(.L.Q M 8 5 5 8 m E D.P ! ~ OXQ C B B {.0XqX7X(.gXGXJXnX*.k.:Xl.$.A C vXLXLXLXLXKX*X#.1.2.=XH.z l g k - * k T @.%.o & UX",
"d.OXOX.XQ.~ E Z 5 5 8 8 n E *XD.Q ~ !.P.j n (.cX0XqX7X}.nXGXJXKX&X-X-Xk.o.J C jXLXLXLXLXLXkX!. .| %Xx g c c g - k T P.*./.E C UX",
"j.OX&.!...a B n M F m 8 o M sX%XP ! &.d.= =.0X0X0X0X7X}.NXJXJXLXIX-X-Xb.$.#.C yXJXKXLXLXLXAX'.$.G #XT g g h l T T o ^.4X!.(.!.UX",
"g./.&.&.F y * - m Y V 8 8 Y OXlXS.$X`.Q Y qXqX0XcX0X7X}.mXGXJXJXKXsX:Xl.&.%.H @XJXKXLXKXKXJX&X%.r Q.P.g g - g P.x k K.+XQ.Q.!.UX",
"g.!.^ *.Y k k F W P m & n Q L.^.{.l.j.P {.qX0X0X0XcX0X8XmXGXJXJXLXIX5X`.!.f.P  XJXJXKXKXKXJXgXf.S D aXc k g g U.P.K.T L.!./.Q.UX",
"g.%.Y ! D l T @.F F 8 n n ! D.!.:XM.j.=XcXcXDXDXDXcX8X=XCXJXJXJXKXKXsX;X_.W V ~.AXKXKXKXKXJXnX'.K M  XP.x P.K.oXT P.^.n ! .X$XUX",
"g.#.D ! C W R x t w O 8 n E Q %X}.g.f.lXcXDXFXFXcX8X7X*XCXGXKXJXHXKXIX<X).D V D.mXJXJXKXKXJXNX%XQ.C o ~.fXsX+XT T %X! X o C ! UX",
"g.#.W *.~ E c x | K % O o C Y ^._.q.=X0X7X7X7X7X7XqX8X8XCXJXKXKXSXFXZX4X..M n R fXJXJXLXKXJXZXtX~.E X X R =X*X%X%X^.D + A !.! UX",
"g.$.W D.! j j Y D.Q o X s m U /._.e.Z.Z.Z.Z.C.C.C.V.a.8XCXHXKXJXFXMXAXtXK r n R %XJXJXJXLXJXZXfX~.Q s X O 7 a ^ %.%.C + / '  .UX",
"g.X.E D.C o & P ~ E s n n V W f.z.Z.Z.Z.Z.Z.C.c.C.C.5.8XCXHXFXJXFXbXBXsX^ m V P  XFXFXJXHXHXFXZXXXD.n X O u r O...o.k + / ' ;.UX",
"g.$.E ! n o o C F.! Z C V C | h.Z.Z.Z.Z.V.V.p.C.p.5.4.8XCXFXFXHXFXBXBXVX/.m m V T.CXGXFXFXFXAXZX%XD.v E W 7 n %.o.} + + / ' =.UX",
"$.#.H ! C Z M P ~ E P C C A w.Z.V.V.V.V.V.C.p.p.5.5.4.jXCXFXFXFXCXCXCXBXyXM M n Q nXZXZXFXFXZXZXyXL.A T.~.C D H } -.= O / ] +.UX",
"..^ E ~ E E E C U D H Y U q.V.Z.V.V.V.C.C.C.p.p.5.4.0.jXCXCXCXFXBXCXBXZXvX! m v R gXZXFXCXFXZXnXyX[.k.O.| | ' -.} -.-.k ] ] ] UX",
"J W E D.Y E H U E E E C #.x.V.x.x.x.x.p.5.p.5.5.4.4.4.*XmXCXCXFXmXmXCXCXmX%XC o Z tXZXSXSXCXCXnXjX[.z.r.| & j } ( +.( * / ] ) UX",
"E W Q D.E Y E D H Y U #.a.V.x.x.a.a.p.p.p.5.4.u.u.1.0.yXNXmXmXmXCXnXCXmXbXfXD.B U @XnXCXCXCXCXNXgX[.N.h.F s s B A F k 6 / ] ) UX",
"W E Y L.W E D E E R X.a.V.a.a.s.p.a.p.5.5.p.4.4.0.f.q.%XkXnXmXbXnXgXnXnXfXuX@XR P .XvXCXCXCXNXnX8X[.k.t.O.9 s s A e r 2 / / ) UX",
"M D Y Q ! E E E D X.z.a.a.a.s.s.s.p.p.5.5.5.4.4.0.W G '.jXnXfXfXfXuXtXfXvXwX@XT.Q  XfXnXNXNXmXnXgX{.k.t.t. .0 n A G  .` / ] ] UX",
"Q N L j J J A A q.a.a.a.s.s.i.u.u.p.4.5.4.4.1.1.` / ( ].gXfXfXfXgXuXrXtXfXwXwX X^ T.gXnXnXNXnXnXgX{.k.h.t.r.e.e.e._ t A t ' ] UX",
"R R L.O._ _ ( ` s.a.s.s.p.u.4.4.4.5.5.4.5.4.2.1.` y _ '.tXfXfXtXtXfX%XrXiXrXoX@X~ ~.tXnXnXnXnXnXgX{.h.h.t.t.t.y.r.r.w.' _ o.o.UX",
"L.&.o._ _ ` _ +.a.a.u.u.u.4.4.4.4.4.4.4.4.4.2.2.p y / ).tXfXfXtXtXfXrX.XpXpX X#XT.~.gXnXnXfXfXfXfX=Xk.h.t.t.t.t.r.r.y.w.w. .o.UX",
"F S _ _ _ _ +.r.s.u.0.u.4.4.4.4.4.4.4.4.4.4.2.2.` 3 y (.tXfXgXtXtXfXuX~.@XuX X Xf.T.gXfXfXfXfXfXfX=Xz.h.h.t.r.h.r.r.r.o..XtXtXUX",
"t t e e y | =.g.u.4.0.u.1.4.4.4.4.4.4.4.4.1.>.2.` / t d.tXfXgXtXtXtXfXF.S.tX@X|.Q.^ rXgXgXgXeXgXtX$Xg.h.h.h.r.r.h.t.e._.eXwXeXUX",
"m m F m F +.l.+.` i.0.1.1.4.1.4.1.4.1.4.1.1.>.>.>.u t &.%XuXuXtXrXXX%X~.V  X@X~.Q.K  X#XeXgXeXgXtX@Xf.t.h.g.X.....J G H XXwXwXUX",
"s m V J o.g.o.| ` y.0.<.1.4.1.1.4.1.1.4.4.2.>.>.,.u r $.@XtXtX@X@XXX~.XXC ^ .X~.^ K f.~..XtX@XtXtX@XJ q.h.h.e.q. .X.| t P |.$XUX",
"F O.J o.=.+._ y ` 0.,.0.1.1.1.1.1.1.1.1.2.2.>.>.K A K J .XrX%X@X%XXX~ .XF } T. X^ u ^ T.T.@X@X@XrX@XG t e.h.e.^ J H M m v d R UX",
"' +.O.o.o.o.t _ _ 0.,.,.,.1.1.1.1.1.1.1.2.>.4 >.` a a G ^.@X@X@X@X.XD |.D M W Q.^ u a f.~ XX@XXX@X$XG e a h.e.J H M m n b f f UX",
"} O.O.O.| S y _ i p ,.,.,.,.<.2.2.2.2.2.>.>.4 p p p i S %.XXXXXX@X~.A L.D e y %.H < u K ^  XXX XXXXXK r w  .h.o.^ A m 8 d f f UX",
"m } S e S 9 2 y y a X.,.p ,.,.,.>.>.>.>.>.>.4 p p i i t #.|. X X.XL.K %.A = = H K < u a K D. XT. X XX.r 6 y o.e. .H A n X f f UX",
"* F e = F j 2 y 3 w ,.p p a >.>.>.>.>.>.>.p 4 4 i i y i S D.~.~.L.W G H H 0 0 r 0 > 7 u a H T.T.T.R.X.w 6 6 t q. .A A H o X f UX",
"& = F m R n q 2 q 2 a p p p p p p p p p p 4 4 4 i w w y F D T.~.~ A a G K 0 w < < > 7 7 u M G.T.~ T.^ u 6 e e | q.` m V V o X UX",
"j & = V R m 2 2 q : w a p u a p p p p p p 4 < 4 4 w q q e % ! D.A y t a r w u 7 < 1 < 3 7 r E ~ Q S.W u # 9 m 6 X.O.r n B M V UX",
"s n j s I m 2 2 2 $ 7 a u u u u u p 4 u 4 < < 4 3 w 2 , % % % A 0 = w t 7 7 w , 1 1 > < 7 7 M Q Q H K u = 9 M 9 r X._ 9 v s B UX",
"s n s B L & 2 2 $ $ % w u u 7 u u u u u u < < < 3 2 2 , # # $ * U 6 2 w , w w > ; $ > < > > 0 P H 0 7 6 # 6 m 8 $ t | t o s s UX",
"s s s j N & 2 q # # # w 7 7 < < < < u u u < < < 3 < 2 # # @ $ & 7 ; , w 2 < w > 1 $ ; > ; ; ; M M ; > # $ 8 8 8 % 6 G G e s s UX",
"s o s s N O $ # @ # ; ; 7 < 7 < < < < 7 < < > > , < : # @ . $ % M M : w , > 7 , ; . 1 > ; ; ; 5 5 ; ; . @ m 8 & % @ q G t 8 o UX",
"X o s s N & 2 $ . O . . 7 7 < 5 < < < < < ; 1 ; , 6 , , $   $ @ 5 5 # q , , 7 : 1 . ; ; ; 1 ; 5 5 ; . O   M n 8 % @ # r t r & UX",
"X X X s s O $ % . % O . 5 < 5 ; 5 < < < < ; ; 1 : 6 : 6 $   @ . 8 n # < : : 6 ; 1 . ; ; ; ; ; % 5         8 V & % % . % r r q UX",
"X X X + +   # % . . .   . 5 ; ; ; ; ; ; ; 1 1 $ : , : #       . O 5 # , : # , ; 1 . # ; ; ; @ % O         O m n % . % . 6 r r UX"
};
