/* XPM */
static char *_b1bbf85c1eb4e15b4511eb8cdaca9a0rar6LKUgwDA3I0lx[] = {
/* columns rows colors chars-per-pixel */
"64 64 256 2 ",
"   c black",
".  c #010101",
"X  c #020202",
"o  c gray1",
"O  c #040404",
"+  c gray2",
"@  c #060606",
"#  c #070707",
"$  c gray3",
"%  c #090909",
"&  c gray4",
"*  c #0B0B0B",
"=  c #0C0C0C",
"-  c gray5",
";  c #0E0E0E",
":  c gray6",
">  c #101010",
",  c #111111",
"<  c gray7",
"1  c #131313",
"2  c gray8",
"3  c #151515",
"4  c #161616",
"5  c gray9",
"6  c #181818",
"7  c #191919",
"8  c gray10",
"9  c #1B1B1B",
"0  c gray11",
"q  c #1D1D1D",
"w  c #1E1E1E",
"e  c gray12",
"r  c #202020",
"t  c gray13",
"y  c #222222",
"u  c #232323",
"i  c gray14",
"p  c #252525",
"a  c gray15",
"s  c #272727",
"d  c #282828",
"f  c gray16",
"g  c #2A2A2A",
"h  c gray17",
"j  c #2C2C2C",
"k  c #2D2D2D",
"l  c gray18",
"z  c #2F2F2F",
"x  c gray19",
"c  c #313131",
"v  c #323232",
"b  c gray20",
"n  c #343434",
"m  c #353535",
"M  c gray21",
"N  c #373737",
"B  c gray22",
"V  c #393939",
"C  c #3A3A3A",
"Z  c gray23",
"A  c #3C3C3C",
"S  c gray24",
"D  c #3E3E3E",
"F  c #3F3F3F",
"G  c gray25",
"H  c #414141",
"J  c gray26",
"K  c #434343",
"L  c #444444",
"P  c gray27",
"I  c #464646",
"U  c gray28",
"Y  c #484848",
"T  c #494949",
"R  c gray29",
"E  c #4B4B4B",
"W  c #4C4C4C",
"Q  c gray30",
"!  c #4E4E4E",
"~  c gray31",
"^  c #505050",
"/  c #515151",
"(  c gray32",
")  c #535353",
"_  c gray33",
"`  c #555555",
"'  c #565656",
"]  c gray34",
"[  c #585858",
"{  c gray35",
"}  c #5A5A5A",
"|  c #5B5B5B",
" . c gray36",
".. c #5D5D5D",
"X. c gray37",
"o. c #5F5F5F",
"O. c #606060",
"+. c gray38",
"@. c #626262",
"#. c gray39",
"$. c #646464",
"%. c #656565",
"&. c gray40",
"*. c #676767",
"=. c #686868",
"-. c DimGray",
";. c #6A6A6A",
":. c gray42",
">. c #6C6C6C",
",. c #6D6D6D",
"<. c gray43",
"1. c #6F6F6F",
"2. c gray44",
"3. c #717171",
"4. c #727272",
"5. c gray45",
"6. c #747474",
"7. c gray46",
"8. c #767676",
"9. c #777777",
"0. c gray47",
"q. c #797979",
"w. c gray48",
"e. c #7B7B7B",
"r. c #7C7C7C",
"t. c gray49",
"y. c #7E7E7E",
"u. c gray50",
"i. c #808080",
"p. c #818181",
"a. c gray51",
"s. c #838383",
"d. c #848484",
"f. c gray52",
"g. c #868686",
"h. c gray53",
"j. c #888888",
"k. c #898989",
"l. c gray54",
"z. c #8B8B8B",
"x. c gray55",
"c. c #8D8D8D",
"v. c #8E8E8E",
"b. c gray56",
"n. c #909090",
"m. c gray57",
"M. c #929292",
"N. c #939393",
"B. c gray58",
"V. c #959595",
"C. c gray59",
"Z. c #979797",
"A. c #989898",
"S. c gray60",
"D. c #9A9A9A",
"F. c #9B9B9B",
"G. c gray61",
"H. c #9D9D9D",
"J. c gray62",
"K. c #9F9F9F",
"L. c #A0A0A0",
"P. c gray63",
"I. c #A2A2A2",
"U. c gray64",
"Y. c #A4A4A4",
"T. c #A5A5A5",
"R. c gray65",
"E. c #A7A7A7",
"W. c gray66",
"Q. c #A9A9A9",
"!. c #AAAAAA",
"~. c gray67",
"^. c #ACACAC",
"/. c gray68",
"(. c #AEAEAE",
"). c #AFAFAF",
"_. c gray69",
"`. c #B1B1B1",
"'. c #B2B2B2",
"]. c gray70",
"[. c #B4B4B4",
"{. c gray71",
"}. c #B6B6B6",
"|. c #B7B7B7",
" X c gray72",
".X c #B9B9B9",
"XX c gray73",
"oX c #BBBBBB",
"OX c #BCBCBC",
"+X c gray74",
"@X c gray",
"#X c gray75",
"$X c #C0C0C0",
"%X c #C1C1C1",
"&X c gray76",
"*X c #C3C3C3",
"=X c gray77",
"-X c #C5C5C5",
";X c #C6C6C6",
":X c gray78",
">X c #C8C8C8",
",X c gray79",
"<X c #CACACA",
"1X c #CBCBCB",
"2X c gray80",
"3X c #CDCDCD",
"4X c #CECECE",
"5X c gray81",
"6X c #D0D0D0",
"7X c gray82",
"8X c #D2D2D2",
"9X c LightGray",
"0X c gray83",
"qX c #D5D5D5",
"wX c gray84",
"eX c #D7D7D7",
"rX c #D8D8D8",
"tX c gray85",
"yX c #DADADA",
"uX c gray86",
"iX c gainsboro",
"pX c #DDDDDD",
"aX c gray87",
"sX c #DFDFDF",
"dX c gray88",
"fX c #E1E1E1",
"gX c #E2E2E2",
"hX c gray89",
"jX c #E4E4E4",
"kX c gray90",
"lX c #E6E6E6",
"zX c #E7E7E7",
"xX c gray91",
"cX c #E9E9E9",
"vX c #EAEAEA",
"bX c gray92",
"nX c #ECECEC",
"mX c gray93",
"MX c #EEEEEE",
"NX c #EFEFEF",
"BX c gray94",
"VX c #F1F1F1",
"CX c gray95",
"ZX c #F3F3F3",
"AX c #F4F4F4",
"SX c gray96",
"DX c #F6F6F6",
"FX c gray97",
"GX c #F8F8F8",
"HX c #F9F9F9",
"JX c gray98",
"KX c #FBFBFB",
"LX c gray99",
"PX c #FDFDFD",
"IX c #FEFEFE",
"UX c white",
/* pixels */
"UXUXSXdXdXJXUXUXUXUXUXUXUXNXdXuX2XOX!.oX6XxXNX,.; V oXUXUXUXUXUXUXUXUX/._ a t /.R.p.'.lXxXxXlXlXVXUXUXUXUXUXUXUXUXUXUXUXUXUXUXUX",
"UXUX:X~ ~ E #.m.OXuXSXOX/ g t m 1   L ~ L k q   X.uXUXUXUXUXxXxXUXUXUXNX/.~ 6 $     + t a k L ~ L ~ ;.j./.1XdXJXUXUXUXUXUXUXUXUX",
"x.m.F.!.2X1Xw.a   1 k +   2 f.&X&XX.} UX/.a V.R.#.V ;.aXUXJX} '.UXUXV.V _ $.V +             S 8.j.R.H.8./ G G S / H.NXUXUXUXUXUX",
"3.,.X.E a x t ;.3.g   g S 6 1 6 x _ 1 ;.2 w.6XuXlX6X8.m oX1XL SXJX,.E H.#.1   q E _ 6 k } ~ S $   g u.uXUXUXlX2XP./ V f.xXUXUXUX",
"UXUXUXP.k u.S ,.oX2 _ NXUXaX[.3.t 6 2 + X.#._ _ _ } 8.E 1 x f.JXj.a #.g   6 F.NXxX&X/ V m.p.w.m       ; #.&XUXUXUXUX6XS $.'.&XUX",
"UXUXuXx 2XUXNX;.$ V SXUXUXUXUXUXVXw.  ; R.UXUXJXxXeXOXP.~   S E 2 +   t E OX!.#.G / X.1 1 $.m.m.j.,.q     ; 8.aX1XV.$.g a } j.UX",
"UXUXm.#.UXUXUXuX+ 3.[.m.x.x.V.'.1X/ a } E L :XUXUXUXuXj.k $ 1 + $       t V 1 k j.&X&Xm j.G j.aXUXUXxX;.; 6   6 + L [.8.w.UXUXUX",
"m.lX8.m.UXUXeX_   2 / ,.3.3.;.q + t V P.JXF.g F.UXV.x k ~ $.1 !.m     g k x x.P.V.V.m G !.p.G k L j.3.L ~ E +   g t j.F.3.UXUXUX",
"/ V t ;.2Xf.V t 6 X.UXUXUX2X,.E './.t p.UXUX6XS } V 1X~ /.k P.uX; 2 $ X.!.;.2 f.H.m S /.dXeXF.V q E g 6 ;.oXL + m a k } 3.UXUXUX",
"UXuXp.  6 q k g + t #./ k   t w.x.x./ ; p.F.oX'.2 u.F.8.P.6 2X/ x 2XH.    2 k t g R.uXm.V E S m.lXUXJX1X,.6 ; + t a f.; 3.UXUXJX",
"UXUXp.6 a j.x.g q R.f.a 1 L 3.8.8.8.u.t   m _ / t 2 t P.S E E 2 F.UXUX'.t   x k a X.2 $ / j.w.~ X.f.p.3.~ g   1 6 + 3.t ,.UXVXxX",
"UX3.S aX!.} / S S j.V p.aXUXUXUXUXUXUX~ $.G #.j.$.    6 +   w.m.,.UXUXUXeXa 1 +   m w.8.#.#.$.$.$.3.;.L ,.S   ; $.1Xu.; t f.6XxX",
"$.G xXUXUXUXUXdX; g dXUXUXUXUXUXUXUX1Xx NXlXF.} g   1 t ; 2 k } q /.lXF.#.;.E   $ L m.P.:XdXVXJXUXSXxX&Xm + x m H.eX2X1 ~ p.E / ",
"+ 6XUXUXUXUXUXx.S t u.uXlXlXNXJXUX:Xx u.1X:X2X2XE 6 E t a ; m X.; ; t + ~ E k q F.!.3./ E G S S G k 1 1 E w.aXNXx.a ;   V H./.!.",
"+ '.UXUXUXUX1Xa E ~   ; q 2 2 x S $ } dXSXuXj./ 1 2   k S     g 6 $   6 t _ 1 q E R.NXUXJXNXaX!._ ; g ,.X.L j.X.2 + L ; t f.w.#.",
"3.$.UXUXNXp.X.g eX'.V x q 8.,.#.x.P.;.~ $.k #.a $.+ m.!._ S m / 1       t m + k     t X._ L k 1 k ;._ 1 6 x 2 $ a [.OX1 6 E [.UX",
"6XS SXxX3./.JXL R.E /.NXX.L m.SXUXUXUXp.6 S } / m a F.f.P.u.g S ;         2 6             g t ; / 6     6 q G m.xXuXS 3.} '.V / ",
"SXS 2XV.R.UXUX&Xq x JXUXJXR._ S w.OXuXV eX2X+ 1   ;.&XR.m           6 2   ,.NX6XH.$./ G x q 2     1   S 8.OXJXUXVXS !.[./ UXxX8.",
"UX,.j.6Xf.UXUXUXw.2 ,.oX/.&XOXF.~ 1 1 6 u._     t [.$.+       $ 6 x ;./   + 8.u.f.F.R.P.#.6 $ 2 R.uX#.S dXUXUXUX#.8.UX/./ UXUXUX",
"UX'.~ UXj.1XUXlX~ q ; a ;       +         q ;.6 g ;   +   k ;.t t ~ 3.3.t _ 6 j.$.    m m 6 $ x SXUXUXm.m dXUXp.L SXUX'.~ UXUXUX",
"UXdXV lXlXu.3.k 1 f.:XxX1XH.w.;.,.q   X.a a x.k m   ;   a #.V p.eXJXUXNXm oX6 / k X.oXJXP.m x.m S !.SXUX#.m./.x xXUXUX[.~ UXUXUX",
"UXUX~ /.OXq X.OXL NXSXUXUXUXUXUXlXS t m.;.OXV     k V + 6 X.eXUXUXUXUXP.; q   $.6XUXUXm.V 6XUXaX6 x S '.m.m x 2X/.p.oXoXE UXUXUX",
"UXUXF.a L x.;.#.2 L G L ,.f.u.$.~ t 2 6 w.uXu.  _ w.; $ P.UXUXUXUXUXlX2 a S $ uXUXUXp.G aXUXUXUX} R.oXG g ; '.UX/.w.~ x ~ UXSXUX",
"UXSX#.; X.G / k q q     +       6 t     + 1 $   S $ ; P.UXUXUXUXVX:Xw.1 :XL ; 6XUXj.G xXUXUXUXUX,.x.UXeX$ k VXUXUXUXJX/ m ;.H.UX",
"UXw.    ;.eXH.6   2 G E _ ;.;.$.m +         q   +   _ UXUXUXNX&XP.OXS 6 ;._ L eXm.G lXUXUXUXUXUX;.x.SXE g $.L NXUXUXUXu.+ 8.VXUX",
"j.  E _ $.G $ ; ;.dX2XaXUXUXUXV.m x       2 6   +   a } :X:X!.2XSX;._ ;.+ 2X/ w.S aXJXVXSXSXSXNXL '.;.1 &XUX,.$.UXUX/.1 S UXSXu.",
"  ;.JXV.  E :X} _ 2XlXVXNXxXX.L :XS   + 2 + + $ $   X.,.a m.UXxX_ L F.t $ G 2 $ g G V m m V S g ; q   t E #.3.1 F.u.q p.E UXJX'.",
"6 aXp.x $ !.UX~ ,.'.VXJXUXw._ VX8.; u.w.2     k ~     L V ; X.k x / $ t ;./   ~ oX2XuXaXaX6X8.+ 1 ; /.aX:XP.f.m     S p.G UXUXUX",
"G q / lXL ~ 6XS R.oXuXSXeXg OX/.k 2XJX$.  $ S $ V 6           + a _ !.NXUXJXx E V ~ X.$._ t       H.UXUXUXUXH.S ; ; 1 a g F.lXUX",
"k g X.UXx.$ uX} [.SX&X'.G / VXm.F.lXX.  + w.x.  V.NXR.q     ; g aXUXUXUXUXJXE 6XdXR.;.q + ~ } 1 m.UXUXUX2XE k / $ _ :XVX[._ m X.",
"V.NX_ $.2X; _ k w.OXF.t   m ,.t x 2 a + X.UX3._ S uX'.g + E k ; E #.$.;.;.;.x / L ~ ;.m.dX6Xk } P.3.#.$.$ + 6 6 k xXUXUXUXUXuXf.",
"UXUXVXE 3.P.q a G a k } 3.x   f.S 6 S g /.2Xk NX3.1 $ ; p.aX:Xu.      2 q t k S $.j.F.R.F.g   2   +     m '.G f.L JXUXUXUXUXUXUX",
"UXUXUXNXE ;.E g L a j.8._ x + 6   + V k m.V !.j.k ; 1 8.} m L / a q q   + $           1   ; #.q 2 8.&X[.G S m.$.x.UXUXUXUXUXUXUX",
"#.2XUXUXxXL 1 + 6 1 S 6 6 t +   2 ; +     6 G m x E 2 6 F.SXJXJX[.t x 3.OX6XOXV._ q   + t t x $.dXUXUXUXV.  E t F.P.P./.2XlXNXSX",
"3.x } oXUXaX6   a ,.UXxXx.$ 1 } k $           1 1 x $ $ / w.SXUXj.+ 2XUXUXUXUXUXJX_   + 6 g X.V R.UXUXoXg       $ 6 g x x x k x ",
"UXlXm.L G S + + G k } E q $ 1 S 1     +           + 1 $     R.1Xg ; aXUXUXUXUXUXw.  + } H.L _ F.m #./ + $ + E #.t &XJXJXSXxXeXOX",
"UXUXUXOX2 8.p.g     $ ; x 2 + $ x R.3.    ;.P.g   _ lX2X:Xj.1 +   + x / $.w.V.F.  V &XUXUXJXF.k k q q $ G OXUXUXF.k oXUXUXUXUXUX",
"UXUX&Xm F.V./ x 2 6 m.u.j.6   L VXUXw.a m _ ;.a ; _ UXxXm.~ ;           S 8.k   g L u.!.6XlXu.+ + k   E SXUXUXUXUX[.a F.UXUXUXUX",
"UXNXg g S X.'.xXE p.m t ~ /.p.a R.$.  m t   $ x 1 2 _ 6 2 u./.1Xu.  ; q 1 x 1 + ;.} $   ; 6 ; t g   6 S VXUXUXUXUXUX6Xm 8.UXUXUX",
"VX3.1 8.2XJXUXUXV.L ;.oXNXOXu.1       + f.oX[.#.  +   V #.L ~ 8.f.G ;.q ; 1 #.x u.w.w.3.1 t x 1XP.; w.g H./.OXeXxXSXUXxXE } SXUX",
"m 2 1XUXUXUXlX:X'.L + g t       +   ; x #.R.F.q x 1XoXS j.1XP.X.; q _ ;.3.$ V G eXSXUXx./ NXV.a t ~ '.E JXNXuXeX:X&X:X[.S X.JXUX",
"f.G UXJXR._ ;   +             + +   2 _ E ;   + ~ 2XlX,.2 2 2 k ; a t k _ X.H.1 S E _ 6 R.oX_ V 1 _ G [.JX$._ 3.j.x.G ; 3.:X6XaX",
"'._ SX8.+ g ,.p.6 S j./   $ 1       + G t + g L L V q 2 V a       _ 8.a   S F.t ,.,.; 1 k x 1 V 2   2 $.E   $ + a / L x G ~ ~ ~ ",
"!.a S + p.JXUXx.x 2XF.V ;.eXoX2 1 $   ; $ q / $ 3.} !.6XF.g   _ j.X.2         1   2 $ $.f.,.x       ;.R.m #.'.6XSXUXUXUX6Xm.m   ",
"x ; g m 1XUX:X6 L V } 1XUXNXG j.8.w.V.;   / / ;   ; ~ G G g j.JXUX:Xg F.oXP.#.  g 2 t 8.,.S $ $ u.m.V uX#.'.UXUXJXaXP.$.E _ g 8.",
"2 / 1 $ u.aX} ; } :XUXUXNXE u.SXu.a } $ + L 2XE w.L } eXj./.UXJXp.g R.UXUXUXUXX.q E ; X.S L V./ UXUXP.S q V.:Xw.S 1 + S u.F.x x ",
"[.,.a     ;   x '.aXxXlXE a ,.G G k L 6 m V.k q eXxXG #.:XUXoXS _ uXUXUXUXUXUXOX$   q S   / m.m.UXJXaX,.  ; + 6 x 6   2 2     $ ",
"UXUXm.~ m./.E + + + q a 2 ~ j.1XUXdXS   x UXV.+ lXNX~ _ 2X/ m P.UXUXUXUXUXNXF.m g a G f.;.j.6 S ,.G ;   m q   t 6 a 8.8.t k } 2 ",
"UXUXX.R.UXUX,.+ ; t + G 1XUXUXUXUXUXeXg $ P.w.$ #.k   2 V m.NXUXUXUXUX6X8.V } t H.x.  1 &XUX,.P./ $   2 1 1 m 1   + 6 q 2 t q   ",
"JXUXS 8.8.S V ;.a X.'.;.G p.aXUXUXUXUX:X6   ;   + 1 E H.NXUXUXUXSX'._ m 8.eX!.V NXVXa   x.u.g k q 8.m.} 8.6XUXuX$.6 + S m t k E ",
"p.UX&X} f.F.lXUXlX$.S w.f./ g ;.1XOX3.L m q       m !.dXJXUXlXV.G E P.VXSXu.k :XUX:Xm V $ 6 L q &X1X8.1XUXUXNXoX3.2 k j.:XlXJXUX",
"g SXUXUXUX6XUXUXUXUX:Xf.X.x 1   +     t x V 2 1 g     ; m / q x R.aX6Xj.S X.lXUX/.m &XUX'.1 k 6X1X$.&XoXj.X.V L 6 ; '.UXUXUXUXUX",
"+ p.[.1XOXoXaXaXdXdXdXoX;.1     1 m G 1 q k t F.lXP.E ; 6 6 2 a G V 6   q X.X.S   a } _ } + a #.q x S ~ 3.V.6XuX6 V NXUXUXUXUXUX",
"q t } L V V G a ; ; a m L #.u.'.eXaX&X$.x E ~ f.u.f.w./ ,.3.#.X.m.oX1X&Xf.2 a m.[.'./.'.$.m V a '.aXVXUXUXUXUX'.$ [.UXUXUXUXUXUX",
":XS ;.dXeXx._ g E V.eXUXUXJXuXm.,.V.1X1X2XxXp.NXNXNXxXaX1X:X:X!.$.a m V g H.NXUXUXUXUXlX_ x.H.t lXUXUXUXUXUXNXG _ UXUXUXUXUXUXUX",
"UXxX8.x m E F.uXUXUXUXSX1X[.OXg g V E } '.dXx.1XuX1XoX/./.V.8.X._ #.V.!.X.m.UXUXUXUX;.G 1 V t g :XUXUXUXUX&XE V $.UXUXUXUXUXUXUX",
"UXUXUX6X1XNXNXdXuXuX'.m./.1X6X8.2 t $ +   1 ; $ k x x S ~ } 3.V.oX1X2X6XOXm !.1X:X'.a P.a oXj.eXUXUXUXNXj.G &X6XS xXUXJXVXxXdXuX",
"UXUXUXUXUX:X} j.3.X.,.w.u.8.,.,.#.L g k X.X.X.L q 1 2 m m k g m / } _ } G 2 ~ ~ ~ / m +   V.H.lXuX[.8.a a j.V.w.2 k / E L L a $ ",
"UXUXUXUXUXNXp.6X1XNXUXUXUXUXUXUXUXUXxXNXUXUXUXVXV.H.S 6 ; m } ~ / w.&X2X/ P.UXUXUXUXSXu.t ; 6 m m t g S _ #.,.f.H.3.$ u.eXR.q m.",
"UXUXUXUXUXUXuX$.uXUXUXUXUXUXUXUXUXUXUXUXUXUXUXUXxX[.u.g L x ,.&X[.;.  g P.UXUXUXUXUXUX'.2X&Xx.'.dXxXSXUXUXUXUXUXUXUX[.V 8.m P.UX",
"UXUXUXUXUXUXUX'.f.dXVXUXUXUXUXUXUXUXUXUXUXUXUXUXUXVX!.;.~ S 6 x V t j.xXUXUXUXUXUXUXJXP.JXUXNXR.:XJXUXUXUXUXUXUXUXUXVX&XG F.UXUX",
"UXUXUXUXUXUXUXUXP./.aXdXxXVXJXUXUXUXUXUXUXUXUXUXUXUXUXuXoXoX2XaX&X;.#.R.xXUXUXUXUXUXNX!.VXNXVXSX1X[.OX1XeXuXuXuXeX6XaXJXUXUXUXUX",
"UXUXUXUXUXUXUXUXSX/./.aXVXlXlXlXlXxXNXNXVXSXSXSXSXSXJXJXSXdX1X:X2XeX!.X.L f.uXVXNXNX2X/.SXJXUXJXUXJXxXdXaXuXaXaXxXJXUXUXUXUXUXUX",
"UXUXUXUXUXUXUXUXUXUXuXj.R.SXUXUXUXJXSXJXSXJXSXJXJXJXJXJXJXUXUXJXVXNXNXVXuX3.2 P.VXSX2X:XJXJXJXUXUXUXUXUXUXUXUXUXUXUXUXUXUXUXUXUX"
};
