/* XPM */
static char *result[] = {
/* columns rows colors chars-per-pixel */
"64 64 201 2 ",
"   c #FE762B",
".  c #FE792E",
"X  c #FE7327",
"o  c #FF7930",
"O  c #FD0066",
"+  c #FE0269",
"@  c #FB0B6C",
"#  c #FB126E",
"$  c #F9196F",
"%  c #FA1570",
"&  c #FA1B72",
"*  c #FA2376",
"=  c #FA2C79",
"-  c #FA3A7F",
";  c #F9357D",
":  c #AC6A67",
">  c #AE6C69",
",  c #B06F6B",
"<  c #B1726D",
"1  c #B47770",
"2  c #B67972",
"3  c #B97E76",
"4  c #FEB00D",
"5  c #FEB214",
"6  c #FDB41B",
"7  c #FEAF09",
"8  c #FC833B",
"9  c #FC8037",
"0  c #FCB92A",
"q  c #FDB725",
"w  c #FCBE3A",
"e  c #FDBD35",
"r  c #FCC13E",
"t  c #BC8279",
"y  c #BF887D",
"u  c #FC8E4A",
"i  c #FC8944",
"p  c #FC904D",
"a  c #FC9554",
"s  c #FC9B5C",
"d  c #FB9758",
"f  c #C18A7F",
"g  c #FC9E61",
"h  c #FCAA6E",
"j  c #FCA367",
"k  c #FCAD73",
"l  c #FBAE78",
"z  c #FDB17A",
"x  c #FCB97F",
"c  c #FDC44B",
"v  c #FCC246",
"b  c #FECA5E",
"n  c #FDC751",
"m  c #FDCD65",
"M  c #FCCD6C",
"N  c #FDD067",
"B  c #FED275",
"V  c #FDD47A",
"C  c #FDD97D",
"Z  c #5F6288",
"A  c #64668B",
"S  c #67698B",
"D  c #71718F",
"F  c #7C7C93",
"G  c #FA3C80",
"H  c #FA4484",
"J  c #FA4C86",
"K  c #FA558A",
"L  c #FA5A8D",
"P  c #FB628F",
"I  c #FA6290",
"U  c #FB6C95",
"Y  c #FC7396",
"T  c #FB7699",
"R  c #FA7A9A",
"E  c #01AE9E",
"W  c #01B09F",
"Q  c #0AB19F",
"!  c #11B09F",
"~  c #06AFA0",
"^  c #04B1A0",
"/  c #09B1A0",
"(  c #16B2A1",
")  c #1BB6A2",
"_  c #26B6A3",
"`  c #29B9A4",
"'  c #3CBCA7",
"]  c #3BBDA8",
"[  c #40BDA8",
"{  c #55C3AB",
"}  c #5AC4AC",
"|  c #45C1AA",
" . c #67C9B0",
".. c #75CCB1",
"X. c #79CDB3",
"o. c #68C8AF",
"O. c #8C8A99",
"+. c #9E99A1",
"@. c #A19DA2",
"#. c #B1ACA9",
"$. c #B4B1AA",
"%. c #C38D82",
"&. c #C59284",
"*. c #CD9D8D",
"=. c #C89688",
"-. c #FC839D",
";. c #FD889F",
":. c #CEA18F",
">. c #CEA290",
",. c #D6AE9A",
"<. c #D6AB97",
"1. c #D8B39C",
"2. c #FDBB84",
"3. c #FDBE8B",
"4. c #FBB580",
"5. c #FA8DA5",
"6. c #FD93A4",
"7. c #FC9CA9",
"8. c #FB9BA7",
"9. c #DDBCA4",
"0. c #C3BCB0",
"q. c #FCA2AA",
"w. c #FFADAE",
"e. c #E3BCA4",
"r. c #FCAAB1",
"t. c #FCB4B3",
"y. c #FDBBB5",
"u. c #FBBEBB",
"i. c #FEB0AF",
"p. c #86D1B7",
"a. c #87D1B8",
"s. c #8BD2B9",
"d. c #8BD2B7",
"f. c #93D5B6",
"g. c #92D4B8",
"h. c #99D6B9",
"j. c #81CFB6",
"k. c #A8D8BB",
"l. c #B3DBBD",
"z. c #BDDDBE",
"x. c #B3E1BD",
"c. c #FEC18E",
"v. c #FEDA8D",
"b. c #FCD783",
"n. c #FDC994",
"m. c #FECC9C",
"M. c #FDC492",
"N. c #FEDC93",
"B. c #FEDF9C",
"V. c #FDE196",
"C. c #C6DEBE",
"Z. c #D8D3BB",
"A. c #C7C2B3",
"S. c #E3C3A9",
"D. c #E7C8AB",
"F. c #F8CDA6",
"G. c #FDD3A4",
"H. c #FED6A9",
"J. c #FEDAAD",
"K. c #FDD9A6",
"L. c #EACEB4",
"P. c #FDC4BA",
"I. c #FDCBBC",
"U. c #FEC1B6",
"Y. c #EBD5B5",
"T. c #ECD9BA",
"R. c #F3D5B6",
"E. c #FDDAB2",
"W. c #FED3BE",
"Q. c #F2DBBD",
"!. c #FCDCBC",
"~. c #F5D7B6",
"^. c #FEE2A2",
"/. c #FEE4AB",
"(. c #FDE9A8",
"). c #FEE4B4",
"_. c #FEEAB5",
"`. c #F4E2BE",
"'. c #FDE3BC",
"]. c #FEE9BC",
"[. c #CAE1BF",
"{. c #BADEC2",
"}. c #C3DFC1",
"|. c #FDDDC2",
" X c #FBD5C2",
".X c #E5DEC1",
"XX c #CCE3C2",
"oX c #CEE8C2",
"OX c #DCE6C4",
"+X c #D6E4C5",
"@X c #E4E3C2",
"#X c #EBE6C3",
"$X c #E2EAC6",
"%X c #E9E8C8",
"&X c #F4E4C3",
"*X c #FCE4C3",
"=X c #F2EAC6",
"-X c #FCEAC3",
";X c #FEEDC9",
":X c #F5EBC9",
">X c #FFF3CD",
/* pixels */
"M ;X8.+ + + + + + + + + + + + + + + & P.=Xl.-XY.2 , , , , , , , , , , , , , > < S.-X..C.|.; O + + + + + + + + + + + + + O T :XN.",
">Xq.@ O + + + + + + + + + + + + + + + % I.>XT.1 : , , , , , , , , , , , , , < > , D.>X*X- O + + + + + + + + + + + + + + + O T >X",
"c.Q.R @ O + + O + + + + + + + + + O & 7.~.2.).S.2 > , , , , < > , , , , , , : < 1.&X3.H.y.= O + + + + + + + + + + + + + O L W.F.",
"  s ).t.= O + O + + + + + + + + + H  XK.u X u G.|.%.: , , < > < , , , , , : t Y.E.s X 8 M.|.I + + + + + + + + + + + + % 8.-Xh . ",
"o   i m. XL O O + + + + + + + @ R -X2.o   o   o 4.-X1., : < > < < < < > : >.*Xn.8   o o . j -Xq.& O + + + + + + + O G I.K.p   . ",
"o o     h -X8.# O + + + + O = y.).s   . o o o     s '.L.t : < > > > > 2 e.-Xh o   o o o .   u K. XJ O + + + + + + R -X2.9   . . ",
"o o o o   p J.I.G O + O + L |.n.8   o o o o o o o   8 n.*X>.> > > > %. XH.u   o o o o o o o   o x *XR @ O + O * t.`.s . . o o o ",
"o o o o .   9 c.*XR @ % 7.-Xh o   o o o o o o o o o   o k '.S.1 < ,.:X2.o   o o . o o o o o o   X s ).u.= O K |.m.8   . . o o o ",
". o o o o o .   g ).t.U.K.u X . o o o o o o o o o o o o X u G.~.L.E.s   . . o o o o o o o o o . .   8 M.W.q.'.k . . o o o o . o ",
"o o o o o o .   . 3.>X;Xh X . . o o o o o o o o o o o o   X k -X>X2..   o o o o o o o . o o o o . . X d ].>XG.8   . o o o o o o ",
"o o o o o .   u F.).v b ].3.9   o o o o o o o o o o o   8 c.=Xo.{ OXG.i   . o o o o o o o o o .   o l -XV w B.E.s   . o o o o o ",
"o o o o   . j `.v.q 4 4 w (.~.a X o o o o o o o o     a E.XX' E ~ ) {._.j   . . o o o o o o .   i F.).n 4 4 5 B ].4.o   . o o o ",
"o o o   8 M.].m 4 4 5 5 4 6 V -Xl o   o o o . .   o z -Xg.( E ^ ~ ~ Q ..#Xc.8   o o o o o     j '.N.0 4 5 5 5 5 v _.F.u   o o o ",
". .   d E.^.e 4 5 5 5 5 5 5 5 c _.F.i   . . .   i F.$X} E ~ / / ^ ^ ^ E ' XXE.d     o o   8 3.*Xm 5 5 5 5 5 5 5 4 q v.`.j . . o ",
"  o z *XB 6 4 5 5 5 5 5 5 5 5 4 0 N.'.j   .   j '.l._ E ^ ~ ^ ^ ^ ~ ~ ^ ^ ( g.*Xz o   X a E./.w 4 5 5 5 5 5 5 5 5 4 5 b ].M.8   ",
"p F._.c 5 5 5 5 5 5 5 5 5 5 5 5 4 5 m ].3.i 3.=XX.E ^ Q ^ ^ / ^ ~ ^ ^ ~ ~ ~ E { $Xm.u k *XC 6 4 5 5 5 5 5 5 5 5 5 5 5 4 e (.E.s ",
"-XB.q 7 5 5 5 5 5 5 5 5 5 5 5 5 6 5 4 w _.-XOX' E W Q ^ ^ ^ E / ^ ^ ^ ^ ^ W W E ) C.-X-Xn 4 5 5 5 5 5 5 5 6 5 5 5 5 5 5 4 4 C ;X",
"%X/.c 4 5 5 5 5 5 5 5 5 5 5 5 5 5 4 5 m '.t.#X..Q Q Q ^ ^ ^ / ^ ~ ^ / ^ ^ Q Q Q { $Xy.!.b.6 4 5 5 5 5 5 5 5 5 5 5 5 5 5 4 r B.-X",
"d.}.-XV 6 4 5 5 5 5 5 5 5 5 5 5 4 0 V. XK O K W.x.` W Q ^ ^ ^ ^ ^ / ^ ~ ^ W ( h.*XY + ; u.(.r 4 5 5 5 5 5 5 5 5 5 5 5 5 m ].XXg.",
"s.a.k.%XK.w 7 5 5 5 5 5 5 5 5 4 n _.r.* O O O * w.$X} E ~ / / ^ ^ ^ / / E ] oXP.- O + O @ 5.-XN 5 5 5 5 5 5 5 5 5 4 q v.=X{.s.s.",
"s.s.d.g.+X].b 5 5 5 5 5 5 4 6 b.*XY + O O + + O + Y *Xh.( E W Q ^ ~ ~ ~ X.=X6.# O + + + + O J  XV.0 4 5 5 5 5 5 4 c ).@Xh.a.d.d.",
"s.s.s.d.p.l.:Xv.q 4 5 5 4 r (.P.G O + + + + + + + O - P.oX] E Q / E ` x.|.K O O + + + + + + O * r._.n 4 5 5 4 5 B -X}.s.a.s.s.s.",
"s.s.s.s.s.a.h.$X).v 4 5 N -X5.@ O + + + + + + + + + O # 6.=X..Q E } $Xw.* O + + + + + + + + + + @ U *Xb.6 7 e K.%X{.a.s.s.s.s.s.",
"s.s.s.s.s.s.d.s.{.-XB v.W.K + O + + + + + + + + + + + O O K W.l.f.*XT + O + + + + + + + + + + + + O G u.B.M `.oXg.X.s.s.s.s.s.s.",
"s.s.s.s.s.s.s.s.p.[.>X;XK O O + + + + + + + + + + + + + + O K ;X>X-.O O + + + + + + + + + + + + + O O = |.>X$Xs.a.s.s.s.s.s.s.s.",
"s.s.s.s.s.s.a.s.XX*X<.e.!.U O + + + + + + + + + + + + + O U !.0.#.&X;.@ O + + + + + + + + + + + O O H I.L.:.Q.$Xh.a.s.s.s.s.s.s.",
"s.s.s.s.s.a.k.%X~.%.: : >.&Xq.& O + + + + + + + + + O & q.#X+.A Z O.T.u.= O + + + + + + + + + + @ ;.*X1., : 3 D.=X{.j.s.s.s.s.s.",
"s.s.s.s.a.z.-Xe.1 > > > : t Y.I.H O + + + + + + + O J W.Z.F Z A A Z D 0.*XU + + + + + + + + O = y.`.&.: > , : , <.*X}.g.d.s.s.s.",
"s.s.j.g.OX|.*.: > > , , , > 1 1.-X-.@ O + + + O @ ;.-X#.S A S A A A A A +.=Xq.& O + + + O O P *XS.2 > < , , , , : %.R.=Xk.a.d.d.",
"s.s.{.:XD.t : , , < , , , , > : &.`.y.= O + O = y..XO.Z A A A A A A A S Z F Z.W.J O + O & 7.*X>.: : > < , , , , , > < e.:X}.s.d.",
"g.}.-X<., , , , , , , , , , , , : 2 S.*XI @ I *XA.D A A A S A A A A A A A A S #.=X-.@ H I.Y.t : , , < , , , , , , , , : *.!.+Xh.",
"=XR.%.: , , , , , , , , , , , , , > > :.`.P.&X+.A A A A A A A S S A A A A A A A O.T.I.*X1.< : , , , , , , , , , , , , , : t D.:X",
"=XL.t > , < , , , , , , , , , , , < : &.`.|.#XO.Z A A A A A A A A A A A A A A A F Z.|.-X>.: , , , , , , , , , , , , , , : < e.;X",
"_ l.*X*.: > , , , , , , , , , , : < 1.*XR & R -X$.A A A A A A A S A A A A A A @.=X7.& L *XD.2 : , , , , , , , , , , , : %.!.XX| ",
"W W  .=XS.< : , , , , , , , , : t Y.I.H O O O H W.Z.F A A A A A A S A A A D A.*XI + + O = t.`.=.: , , , , , , , , : < ,.-Xf./ W ",
"W W W ] oXE.&.: , , , , , > > :.-Xq.& O + + + O & q.=X+.S A A S A A A Z O.@Xy.= O + + + O @ R *X1.< : , , , , , : t F.OX{ W ^ ^ ",
"W ^ ^ W / f.;X,., > > , : 2 S.*XP O + + + + + + + + P *XA.D Z A A A S $.*X;.@ O + + + + + + O H W.Y.t : , , , , :.-Xx.) W ^ ^ ^ ",
"W ^ ^ ^ ^ W { OXL.t : : &.`.y.= O O + + + + + + + + O = U.T.O.A Z F Z.W.H O O + + + + + + + + O $ 7.-X>.> : < e.=X..W W ^ ^ ^ ^ ",
"^ ^ ^ ^ ^ ^ W ) l.'.*.<.&X-.@ + + + + + + + + + + + + O @ -.*X#.+.&Xq.& O + + + + + + + + + + + O + P |.S.&.R.XX' W ^ ^ ^ ^ ^ ^ ",
"^ ^ ^ ^ ^ W W W E f.>X;XK O + + + + + + + + + + + + + + O O L ;X>X-.O O + + + + + + + + + + + + + + O = *X>XC.Q W W ^ ^ ^ ^ ^ ^ ",
"^ ^ ^ ^ ^ ^ ^ ^ o.$Xv.B.u.G O + + + + + + + + + + + + + O G U.C.l.W.L O + + + + + + + + + + + + + O * r./.b.`.j.Q W ^ ^ ^ ^ ^ ^ ",
"^ ^ ^ ^ ^ ^ ) k.].b 4 6 V *XT @ + + + + + + + + + + O @ T *Xf.( E ..=X6.% O + + + + + + + + + + + K  XV.0 4 v ).XX` W ^ ^ ^ ^ ^ ",
"^ ^ ^ ^ W | oX(.e 7 5 5 4 c _.r.* O + + + + + + O O * t.$X} E ^ Q E ' oXI.- O + + + + + + + + @ 5.-Xm 5 4 5 4 q v.%X .^ ^ ^ ^ ^ ",
"^ ^ ^ Q p.=XB 6 5 5 5 5 5 4 0 V. XK + + + + + + O L W.l.` E W Q W Q W ! f.*XY @ + + + + + O G P.(.w 4 5 5 5 5 4 5 b _.h.) W ^ ^ ",
"^ E ` x.(.c 4 4 5 5 5 5 5 5 4 5 N ].5.# O + O # 6.=X..Q E / ^ ^ Q W / E E } $Xi.* O + O + Y &XC 6 4 5 5 5 5 5 5 5 4 w V.oX| W W ",
"W  .=Xv.0 4 5 5 5 5 5 5 5 5 5 5 4 r (.P.- O - P.oX' E ^ ^ ~ / ^ ^ ^ ^ ^ ^ E _ l.!.L O * r._.n 4 5 5 5 5 6 5 5 5 5 5 5 5 V ;Xp.Q ",
"l.).b 5 5 5 5 5 5 5 5 5 5 5 5 5 5 4 6 C !.8.|.f.( E Q / ^ / ^ / ^ / ^ / ^ / E Q ..#Xq.I.V.0 4 5 5 5 5 5 5 5 5 5 5 5 5 5 4 v /.+X",
";XN.6 4 5 5 5 5 5 5 6 5 5 5 5 5 5 5 7 q _.>X+X_ E ^ ^ ^ ^ ^ ~ ^ ^ ^ ^ ^ ^ / ^ E ! z.>X].v 7 5 5 5 5 5 5 5 5 5 5 5 5 5 5 5 4 M >X",
"=.~./.w 4 5 5 5 5 5 5 5 5 6 5 5 5 4 n _.m.a m.$X} E E / ^ ^ ^ ^ ^ ~ ^ ^ / ~ ^ ] XXH.d 2.-XN 5 5 5 5 5 5 6 5 5 5 5 5 5 4 q N.!.>.",
": 1 9.].m 4 4 5 5 5 5 5 5 5 5 4 6 b.*Xl o X . l *Xh.( E ~ ^ / ^ ~ ^ ~ ~ ~ ~ ..-X3.8 X   g `.N.0 4 5 5 5 5 5 5 5 5 5 4 c _.L.t : ",
", > > >.*XN.0 4 5 5 5 5 5 5 4 w ).E.a   o o .   d H.+X] E ^ ^ ~ ^ ^ ~ ^ _ {.'.j o   . .   i m.'.n 4 5 5 5 5 5 5 4 6 V -X,.< > , ",
", , > : 3 L.).c 4 5 5 5 5 5 m *X3.o   o o o o o   8 3.-XX.Q E ^ ^ ^ ^ } OXm.i   o o o o o   o l *Xb.6 5 5 5 5 4 e ^.Q.%.: > , , ",
", , , , : 1 ,.-XV 6 4 4 0 N.'.j     o o . o o o   .   j '.l._ E ^ ( g.*Xz o   o o o o o o o . X p E./.r 4 4 4 b -Xe.2 : < > < > ",
", , , , , > : %.Q.^.e c ).F.i   o o o o o o o o o o .   i m.$X{ ' }.J.a X   o o o o o o o o o o . o 3.].m 0 v.&X>.> > , > < , < ",
", , , , , , , > < S.-X-Xz .   . o o o o o o o o o o o .   o z ;X=XM.o . o o o o o o o o o o o o o .   j *X-XY.t : > , , , , , , ",
", , , , , , , : f Y.I.W.n.8   o   o o o o o o o o o o .   8 n.!.Q.H.p   o o o o o o o o o o o o o   o x !.U.`.=.> > , , , , , , ",
", , , , , > : <.;X6.# * t.'.s   o o o o o o o o o o .   s ).L.3 < S.'.k .   . o o o o o o o . .   u K.I.H + Y -X9.< > , , , , , ",
", , , , : 3 D.|.K O + O @ R -X2.o   o o o o o o o . o 2.*X,., , , > *.&Xn.i   o o o o o o o . . h -X7.% O + O - I.Q.y : , , , , ",
", , > > =.`.t.* O + + + + O H I.K.u   o o o o o   p H. X&.: , , , , : t L.'.s   . o o o .   8 n.|.I O + + + + O # 6.-X<.> > , , ",
", > < 9.*XR + + + O + + + + O & 8.-Xh . . o   . k ].S.2 : , , , , , , > , 1.-X2.o . o o   s ).y.= O + + + + + + O O K  XD.3 : , ",
": f Y.I.H O O + + + + + + + + O O I |.n.8 X 8 n.&X*.> > , , , , , , , , , : %.Q.K.u X o 2.-XR @ O + + + + + + + + + O * t.`.=.: ",
",.`.6.% O + + + + + + + + + + + + O = t.E.k E.L.t : > , , , , , , , , , , , : 2 S.'.l m.I.H + + + + + + + + + + + + + O @ T &XS.",
">Xq.O + + + + + + + + + + + + + + + O % I.>XQ.1 : < < , , , , , , , , , , , , , : D.>X|.; O + + + + + + + + + + + + + + O O Y >X",
"v.;XR O + + + + + + + + + + + + + + @ q.-XC.:XS.< > , , , , , , , , , , , , , : <.-Xk.OXP.* + + + + + + + + + + + + + O O K *X)."
};
