/* XPM */
static char *result[] = {
/* columns rows colors chars-per-pixel */
"64 64 205 2 ",
"   c #000100",
".  c #060807",
"X  c #0B0C0A",
"o  c #0A0605",
"O  c #1B0D0A",
"+  c #0F110D",
"@  c #12130E",
"#  c #131511",
"$  c #171913",
"%  c #191B15",
"&  c #1D1E18",
"*  c #23110D",
"=  c #3C1D16",
"-  c #381C16",
";  c #2D1611",
":  c #1F2119",
">  c #22231C",
",  c #27281E",
"<  c #332018",
"1  c #2B2D22",
"2  c #272725",
"3  c #2F3025",
"4  c #313327",
"5  c #35362A",
"6  c #36382B",
"7  c #3A3C2D",
"8  c #3A3A34",
"9  c #47241C",
"0  c #51281F",
"q  c #493629",
"w  c #55372B",
"e  c #4C2C22",
"r  c #683327",
"t  c #411F18",
"y  c #3F4031",
"u  c #434434",
"i  c #494A39",
"p  c #474937",
"a  c #52533F",
"s  c #534D3A",
"d  c #604039",
"f  c #4E5141",
"g  c #555541",
"h  c #5B5D46",
"j  c #595A45",
"k  c #515150",
"l  c #5F6048",
"z  c #5E6047",
"x  c #65664C",
"c  c #67684E",
"v  c #69694F",
"b  c #6C6D54",
"n  c #686B55",
"m  c #6F7054",
"M  c #6E7058",
"N  c #727356",
"B  c #73755A",
"V  c #7A7C5D",
"C  c #7F6058",
"Z  c #757760",
"A  c #767961",
"S  c #7A7C62",
"D  c #777775",
"F  c #8B4435",
"G  c #974B3A",
"H  c #A2513F",
"J  c #875742",
"K  c #965541",
"L  c #B85A46",
"P  c #97654D",
"I  c #BA6B53",
"U  c #93736B",
"Y  c #C35F49",
"T  c #C6624C",
"R  c #CA654E",
"E  c #CA6B53",
"W  c #CA6851",
"Q  c #D46D55",
"!  c #D86E56",
"~  c #D46B54",
"^  c #CD745A",
"/  c #CA755A",
"(  c #D67259",
")  c #D8745B",
"_  c #DA795F",
"`  c #D47B5E",
"'  c #CC7E60",
"]  c #DA7D61",
"[  c #D47D60",
"{  c #7F8062",
"}  c #838564",
"|  c #878866",
" . c #888967",
".. c #8B8D6A",
"X. c #84866A",
"o. c #8E906B",
"O. c #92936E",
"+. c #959671",
"@. c #979873",
"#. c #9A9B74",
"$. c #9C9D7A",
"%. c #8C8F71",
"&. c #9FA077",
"*. c #9FA078",
"=. c #A2A37B",
"-. c #A7A87D",
";. c #A8AA7E",
":. c #A7887F",
">. c #D38364",
",. c #DC8366",
"<. c #DC8669",
"1. c #D48D6B",
"2. c #DC8C6C",
"3. c #D5926E",
"4. c #DC916F",
"5. c #DC9471",
"6. c #DD9A75",
"7. c #DC9F79",
"8. c #D79772",
"9. c #D48869",
"0. c #E08E6E",
"q. c #E1906F",
"w. c #E19472",
"e. c #E29A76",
"r. c #E39D79",
"t. c #DDA37C",
"y. c #E4A37D",
"u. c #8D8E8C",
"i. c #A88980",
"p. c #9DA080",
"a. c #A3A582",
"s. c #ACAE82",
"d. c #A9AB86",
"f. c #AFB189",
"g. c #B2B385",
"h. c #B5B689",
"j. c #B7B88A",
"k. c #BABC8C",
"l. c #BBBC93",
"z. c #B7B991",
"x. c #B0AFAD",
"c. c #DFAC82",
"v. c #E6A681",
"b. c #E6AB83",
"n. c #E8AE85",
"m. c #E5B286",
"M. c #E8B087",
"N. c #E5B489",
"B. c #E9B58B",
"V. c #EBBA8E",
"C. c #E5BA8C",
"Z. c #E7BE96",
"A. c #ECBC92",
"S. c #EAB993",
"D. c #BFC095",
"F. c #C1C192",
"G. c #C2C499",
"H. c #CACB9D",
"J. c #C7C89B",
"K. c #EDC395",
"L. c #EBC39A",
"P. c #EECA9B",
"I. c #E7C39B",
"U. c #F0CD9D",
"Y. c #F2D19E",
"T. c #CBCCA0",
"R. c #D2CDA3",
"E. c #D3D3A5",
"W. c #DADBAB",
"Q. c #D7D7A8",
"!. c #DFDFB0",
"~. c #EDCCA2",
"^. c #E5CEA3",
"/. c #F1CEA1",
"(. c #EAD6A9",
"). c #F2D4A4",
"_. c #F3D6A8",
"`. c #F4DCAB",
"'. c #F7DDAC",
"]. c #ECDEB1",
"[. c #E0E2AF",
"{. c #F5E1AF",
"}. c #E3E4B3",
"|. c #EDE4B4",
" X c #EAE8B6",
".X c #EDECB9",
"XX c #E7E8B4",
"oX c #F4E4B2",
"OX c #F8E6B3",
"+X c #F4E9B6",
"@X c #F9E9B6",
"#X c #F4EDBA",
"$X c #F9EEBA",
"%X c #F2E7B8",
"&X c #F4F2BD",
"*X c #FAF2BE",
"=X c #CBCBC9",
"-X c #D8D8D5",
";X c #FAF6C1",
":X c #E8E8E5",
">X c #F2F4F1",
",X c #FBFBF7",
"<X c #FDFDFA",
"1X c #EEF0ED",
"2X c None",
/* pixels */
"k.D.k.F.c.D.D.D.D.D.D.D.k.D.k.F.F.D.k.F.D.D.F.F.F.F.F.F.k.D.k.k.F.k.k.F.F.k.F.F.J.F.D.D.k.k.F.k.F.F.F.F.F.k.F.F.F.F.F.F.F.F.F.2X",
"k.j.h.h.j.k.g.D.g.;.g.D.g.g.j.j.j.j.h.h.j.;.F.;.;.j.F.;.j.j.j.j.j.j.j.g.g.j.H.[..X.X[.D.k.;.D.;.;.k.k.;.j.k.;.k.j.g.;.j.j.k.F.2X",
"j.g.;.;.;.;.;.;.;.;.g.;.;.;.;.;.;.;.s.;.;.;.;.;.;.;.;.;.;.s.s.;.;.s.;.;.g.E..X#XOXOX*XW.;.;.;.;.;.;.;.;.;.;.;.;.;.;.;.;.;.j.F.2X",
"k.g.;.-.=.=.-.=.&.&.&.;.-.-.&.-.=.=.=.=.-.=.-.=.-.=.=.-.=.=.-.=.-.&.-.-.H.&X{.Y.U.U.{.#XF.-.-.-.-.-.-.;.&.-.-.&.-.&.;.-.;.D.F.2X",
"k.g.-.#.#.#.@.@.+.#.#.#.#.#.#.+.@.#.g.E.W.G.;.#.#.#.#.#.#.#.#.#.#.#.+.j.&X{.Y.K.K.K.P.$XH.+.@.@.#.#.+.#.+.#.+.#.#.@.#.=.;.;.H.2X",
"k.g.;.#.O...o.o.o.o.o.o.o.o.o.o.o.D.&X#XoX#XXX=.o.o.o.o.o...o.+.o.o.&.[.{.K.K.C.N.K.P.$XG...o.o.o.o.o...o.o.o.o.o.o.#.=.j.D.F.2X",
"k.g.-.&.O. .| } } | { } { { { | @..XOXK.K.P.*XJ.} { ..{ { { { { } } F.$XY.C.m.m.V.V._.&X=.} | | } } } } | } } } | o.#.=.;.k.F.2X",
"k.g.-.#.O. .} V { { { { { { { { =.+XP.B.M.V.).XXO.P { { { { { { { ..[.'.V.C.t.m.K._.&Xk.} V V V { { { { } { { N } ..@.-.g.k.F.2X",
"k.h.-.#.O.| } N m m N N N N N m $.%XA.n.t.M.K.+Xd.b N N N N N N m ;.#XK.M.t.b.N.).&Xh.V N N N N N N N N m N | -.D.-.&.=.;.j.F.2X",
"k.;.-.&.O.| { m v c v c c v v c X.}.P.b.t.y.M.`.W.U c v v v v c { [.`.y.t.6.y.K.*Xk.b x v n v v v v v x V f.}.+X&X#XE.;.;.D.F.2X",
"k.;.-.&.O.| { m c z z z z z z z x E._.b.6.6.y.V.&X-.l l l l h h ;.*XC.y.8.y.b._.W.B h l x h l l h h x $.W.;X`.U.K.{.*XH.;.k.F.2X",
"D.j.-.&.O.| { m c c z g g g g g g d.$Xn.7.3.7.y._.E.l g g g g l E.Y.y.6.4.y.B.#Xa.g g g g g g g a b z..X_.A.V.C.V.K.@XXXh.j.F.2X",
"j.j.;.&.O. .{ { ;.J.F.;.c p i i i m }.P.r.5.1.r.C..XV p i i i V #XV.e.1.4.y.).H.j i i i i i i i b E.+XL.y.y.M.y.C.K.`.&Xj.j.F.2X",
"j.;.-.&.O.| } D.$X{.OX*XF.h y u y u @.oXv.5.>.2.y.{.$.y u u u a.{.y.4.>.w.y.|.o.7 u u u u u y l H.'.n.y.y.6.t.m.V.K.{.[.g.j.F.2X",
"c.j.-.&.O.} -.#XP.y.y.V.{.D.i 6 8 6 i Q.A.w.>.>.q.).z.7 6 6 u T.K.4.>.>.q.K.Q.i 6 7 6 7 7 5 p D.'.v.e.5.8.t.y.V.K._.*XH.s.j.F.2X",
"D.;.-.#.O.| D.@XV.y.7.t.t.+Xg.7 1 1 4 d._.w.>./ <.M.Q.a 1 2 M ].y.<./ >.4.).s.3 3 3 3 3 3 3 ..+Xn.w.2.3.7.n.V.U.OX&XQ.s.s.j.F.2X",
"D.;.;.#.o.| D.+XB.r.5.5.w.S.%XB > > : n ].w.] ^ ] w.].M > 2 $._.<.] / ] r. XB > > > > 2 2 B (.S.5.2.1.5.y.C.{.&XQ.h.#.=.s.j.F.2X",
"D.;.;.&.O.| ;.&XK.v.5.1.2.w./.T.4 % $ u E.v.[ E ^ <._.X.$ 2 f.A.] / E [ S.D.3 % & & & % x W.S.0.<.>.2.r.K.+XXXs.o...#.=.s.k.F.2X",
"D.g.;.#.O.| O.W.%XV.r.4.9.<.y.oXS @ + : l.S.` W R ] S.l.% % d.S.] R W ] ~.%.# + # # X u E.L.2.] ' >.e.m.+XE...B } o.#.=.s.j.F.2X",
"h.;.;.&.O.| { o.W.{.n.w.>.9.0.A.Q.8 . . S ~.] R T ! v.l.$ $ d.S.( T T ! ~.M   X X . & a.~.<.] ^ [ 2.y.'.W.U b V } ..+.=.s.j.F.2X",
"D.h.-.&.O.| { m o..XP.r.2.' ,.w._.p.+   j ^.,.~ L ~ e.R.@.p.!.S.! R R ] ~.D     . X X.(.2._ ^ ^ <.e./.#X$.x b V | =.j.D.j.j.F.2X",
"D.;.;.&.+.| { N n h.oXn.w.' ` ] v.].n   f ^.] ~ L ~ w.(.(.L.S.r.[ ~ ! ] ^.R.X.g + 1 R.b.( ^ E ] w.L.#X$.j x b } k.XX*X*XXXG.F.2X",
"F.Q.XXXXH.+.{ m c N Q.).r.<./ [ [ B.R.3 f ^.<.~ Y ~ ] ,.] ) ( ( ) ) ) ] 4.B._.].d.p.~.] Q T ) <.B.#Xa.g g c } H.&X`.).{.*XXXH.2X",
"&X&X@X@X*X[.;.{ c h %..XA.0.[ E ] ] ^.d.a.(.<.~ ~ ! ! ! ~ R R W R R ~ ! Q ( ] e.Z.].v.~ T E ] r.oXa.i i j { W.#X).K.K.U.`.*XQ.2X",
"*X{.Y.P.Y.@X*XF.{ h g ;.{.r.,.^ E ) 6.%X).6.] ! ! R L F r 0 9 = t 0 r F L T ~ ! _ w.<.! R Q <./.T.a u a B Q.@XU.K.K.K.K.Y.*XXX2X",
"OXY.P.K.K.K.Y.*XH.m a x R.~.2.] R ~ [ v.,.! ~ Y F 0 O                 o O 9 F L ~ ! ( ( Q ) r.|.S 5 u S XXoXA.B.N.N.K.U.{.&XXX2X",
"OXY.P.C.C.K.V.Y.$XD.z u X. Xn.] ( Q ! ) ~ R F t o                           o - F T ! ) ) <.~.J.y 6 j H.OXV.m.m.m.C.P.Y.+X&XH.2X",
"&X`.Y.K.C.C.y.V.P..Xh.a p T._.0.] ) ! ! L r o                                   o 0 L ) ) q.].H.i 7 d.+XV.b.b.c.N.K.Y.@X*XE.F.2X",
".X*X`.Y.K.m.t.C.y.P.+X;.y m .XZ.] ] ! K =             . + + @ X .                   ; G ! ] y.%Xz.X..XL.y.t.t.m.V.U.&X&XJ.D.D.2X",
"H.[.*X{.Y.K.C.y.y.y.Y..Xb B  XB.] Q G *           . k x.=X=X-Xx.u.k f %               O F ( ] M.|.}._.v.y.6.b.V.Y.*X[.j.;.D.F.2X",
"k.k.H.XXOXY.V.y.t.y.y.{.E.W.L.<.] K ;             k -X<X<X<X<X<X<X>X:Xu.%               * K _ <.L.+XM.r.6.t.n.P.*X}.;.=.;.j.D.2X",
"k.;.;.j.XX@XK.m.t.t.y.V.&X'.e.,.I -             X x.<X<X<X,X<X,X,X<X<X,XD                 < I <.e.B.r.6.8.y.V.OX}.#.#.=.g.k.F.2X",
"j.g.;.#.f. X'.A.n.8.6.y.~.B.<.( w               2 =X<X,X,X,X,X,X,X,X,X<X=X#               X q >.2.e.e.3.6.y.Y..X=...+.=.;.j.F.2X",
"k.g.;.#.O.s..X).m.6.5.e.y.e.<.J O .             2 -X<X,X,X,X,X,X,X,X<X<X-X4               X % G <.w.5.3.y.V.*XH.} ..&.=.;.F.F.2X",
"k.g.;.#.O.| J.%XB.y.3.6.e.q./ e + .             2 -X<X,X,X,X,X,X,X,X,X<X:X8             . X # e / q.4.3.y.U.XX+.} o.+.=.;.k.F.2X",
"k.g.;.#.O.} @. XK.y.5.5.w.<.J & + .             2 -X<X,X,X,X,X,X,X,X,X<X:X8               X $ > C 2.1.5.y.Y.W.{ } o.#.=.g.k.F.2X",
"k.g.-.#.O.| } T.{.n.6.1.q.' q % + .             2 -X<X,X,X<X,X<X<X<X<X<X1X8               X $ > q >.1.5.y.`.Q.} } o.#.=.;.k.F.2X",
"k.g.;.#.O. .V h.OXm.e.1.w.P , $ X .             X u.1X>X>X>X>X>X>X1X:X=Xu.+               X @ : , P 1.5.y.'.Q.{ } ..#.=.g.k.F.2X",
"k.g.;.#.O.| V h.$XB.e.5.0.P w w e = = = = = = = - w U i.:.i.i.i.i.U C d 9 = = = = = = = = 9 e w s P 2.5.y.OXH.} } o.#.=.s.j.F.2X",
"k.g.-.&.O.| V o.XXY.y.r.w.9.' ^ ^ W R R R T R R T T T T T T T T T T T T T R R W R R R R W ^ ^ ` >.>.q.e.K.$X;.V } o.#.-.s.j.F.2X",
"k.g.-.&.O. .S B j.*XoXL.y.w.q.2.,.] ] ] ] ] ] ) ` _ _ _ ) _ ] ] ] ] ] ] ] ] ) ] ] ] _ _ _ ,.<.2.w.e.v.K.OXW. .N } o.#.=.;.k.F.2X",
"j.g.-.#.O. .U N B d.H.XX'.).).~.P.L.Z.Z.Z.Z.Z.S.I.I.L.I.Z.Z.L.I.Z.Z.Z.S.I.I.Z.Z.S.Z.L.Z.I.L.~.).~.).oXXXH.} m V } o.#.=.g.j.F.2X",
"k.g.-.&.o.| { m c l z B $.$.%.%.X.S Z S S S A A A { B { Z A A S Z B Z D S S Z Z S S S Z A X.X.+.@.$.-.{ x x m V | o.#.=.s.j.F.2X",
"k.g.-.#.+.| { N c z f i y 5 1 > $ X . . . . . . . . . . . . . . . . . . . . . . . . . o X @ > 2 4 8 p a a x m V } ..#.=.s.j.F.2X",
"F.;.-.&.o.| { N c l g i q 5 2 & $ X . . . . . . . . . . . . X X . . . . . . . . . . . . . # & > 4 7 i a a v N V } o.#.=.s.j.F.2X",
"F.;.-.#.+.| { N c z g i y 6 1 > $ + + + # + + + + + + + + + + + @ + @ X + + + + + + + + + # % 2 4 7 u a h x m { } ..#.=.g.j.F.2X",
"D.;.-.&.o...{ N n z g i y 6 3 & % $ $ % % $ $ % % % % $ $ $ $ % $ % $ % % $ % $ % % % $ % $ & 2 4 8 u a j x m V | ..#.=.s.k.F.2X",
"F.;.;.&.o.| { N n l g i y 6 2 > > > > > > > > > > > > > > > > > > > > > > > > > > > > > > > > 2 4 7 u a j x m V | o.#.-.s.j.F.2X",
"F.;.;.&.O.| { m c z g i y 4 1 1 , , 1 1 1 1 , 1 1 , 1 1 , 1 1 , 1 1 1 , 1 1 1 1 1 1 1 , 1 1 1 1 4 7 p i h x N V } ..#.=.;.j.F.2X",
"D.;.;.&.O.| { { c z g i y y 4 6 6 6 6 6 6 6 6 6 6 6 6 6 6 6 6 6 6 4 6 4 6 4 6 4 6 4 6 4 6 6 4 4 6 y p a h x m V } o.#.=.;.D.F.2X",
"F.;.;.&.O.| { m c z g i y y y y y y y y y y y y y y y y y y y y u u u u u y u y u u u u u y u y y u p a j x m V } ..#.=.;.k.F.2X",
"F.;.-.&.O.{ { m c z g i i p i p p p p p p p p p p p p p p p p p p u p p p u p p p u p p p u p p p i i i j x m V } O.#.=.g.k.F.2X",
"D.;.-.&.O.| P { c z a a a a a a a a a a a s a s a a a a a a a a s a a a a a a a s a a a s a a a a a a a h x N V } o.#.=.;.j.F.2X",
"F.;.-.&.O.| } N c z h z z z h z z z z z z z z z z z h z h z h z z h h h h z h h z h h h h h z z h h h j z x v V } o.#.=.g.k.F.2X",
"F.;.;.&.O.| } m v c x x x x x x c z z c z c x x x x x x z x x c x x x x x x x x x x x x x x x x x x x x x x N V } o.#.=.s.j.F.2X",
"k.;.;.-.O.| } m m m m m m m m m m m N m m m m v m m m m m m m m m m m m m m m m m m m m m m m v N m m m m m N V | o.#.-.s.j.F.2X",
"j.g.;.#.o.| { { { { { { { { { m { N { N V N V V { N { { N { N { { N { N { N { N V V V N V V V V N V V V B V V V } ..#.=.;.k.F.2X",
"k.g.-.&.o.| { { { { { { { { { { } } { } } } } } { } { } } } } } } } } } { } } } } } } } } } } } } } { } } { } } | o.#.=.g.k.F.2X",
"k.g.-.#.+.o.o...| o.o.o.....| ..o.....o.......o.| | .... ... .................| o.......} o...o.....................#.=.s.j.F.2X",
"j.g.;.&.+.+.+.+.O.O.O.+.+.+.+.O.+.+.O.O.+.+.+.O.O.+.+.+.+.O.#.#.+.+.O.+.+.+.+.+.+.+.+.#.O.O.O.+.+.+.+.+.+.+.O.@.+.O.#.=.s.j.F.2X",
"k.g.;.&.&.&.&.&.&.&.&.&.&.&.&.&.&.&.&.&.&.&.&.&.&.&.&.&.&.&.&.&.&.&.&.&.&.&.&.&.&.&.&.&.&.&.=.-.=.&.&.&.&.&.&.*.&.&.&.-.s.j.F.2X",
"k.g.;.;.;.;.;.;.;.;.;.;.;.;.;.;.;.;.;.;.;.;.;.;.;.;.;.;.;.;.;.;.;.;.;.;.;.;.;.;.;.;.;.;.;.;.;.;.-.-.;.;.;.;.;.;.;.;.-.;.g.j.F.2X",
"k.g.g.g.g.g.g.g.g.g.g.g.g.g.g.g.g.g.g.g.g.g.g.g.g.g.g.g.;.k.k.;.;.k.;.k.j.;.;.j.;.F.F.;.;.j.;.;.h.;.g.g.g.g.g.g.g.g.g.g.g.j.F.2X",
"k.j.k.k.k.k.k.k.k.k.j.k.k.k.k.k.k.k.k.k.k.k.k.k.k.k.k.k.k.k.k.k.k.k.k.k.k.k.k.k.;.D.F.;.D.F.D.j.D.k.k.k.k.k.k.j.k.k.k.k.k.k.F.2X"
};
