/* XPM */
static char *_d1286b873a14adef62d8241af8fe11fbgO1lauydVgtt4Ig[] = {
/* columns rows colors chars-per-pixel */
"64 64 58 1 ",
"  c black",
". c #030000",
"X c #0C0100",
"o c #130101",
"O c #170101",
"+ c #270202",
"@ c #470804",
"# c #610F08",
"$ c #6C120A",
"% c #77140C",
"& c #82170F",
"* c #AA2217",
"= c #B12318",
"- c #C6291C",
"; c #C8291C",
": c #D12C1E",
"> c #E93223",
", c #DE4E3B",
"< c #DF4E3B",
"1 c #DE4E3C",
"2 c #DD513F",
"3 c #DD5441",
"4 c #DB5844",
"5 c #D8634D",
"6 c #D9664E",
"7 c #D86851",
"8 c #D86D52",
"9 c #D77057",
"0 c #D5775D",
"q c #D37F63",
"w c #D18E6E",
"e c #BFBF87",
"r c #BFBEA2",
"t c #CEB18A",
"y c #CCBA90",
"u c #C7C593",
"i c #C9C798",
"p c #CBC99B",
"a c #CECC9B",
"s c #CAC89F",
"d c #CBC99F",
"f c #CCCA9C",
"g c #CCCB9F",
"h c #CCCC9F",
"j c #D0CE9D",
"k c #D3D19D",
"l c #D6D39C",
"z c #FFFD8F",
"x c #C5C3A1",
"c c #C7C5A0",
"v c #C9C7A0",
"b c #CAC8A0",
"n c #CFCDA3",
"m c #D0CEA4",
"M c #D3D1A7",
"N c #D5D4AF",
"B c #FAFBF6",
"V c white",
/* pixels */
"                                                                ",
"                                      uzz                       ",
"                                    ka,,<a                      ",
"                                   g1,,,,,r                     ",
"                   jab            i<11 ,,,k                     ",
"                  a11<b           g,11,,25V                     ",
"                  ,,115          j,, ,,abM                      ",
"                  2111,sv        9,<,2b             uy          ",
"                  2,,,<iv        9,<11a             uy          ",
"                  g,,,<wq       b,,1<<j           ap,,g         ",
"                  k,,,,,,g      7<,,<b          p9,,,,,pd       ",
"          rpi      g,,,,,g     k,,,,<k         a<2,2 ,1pp       ",
"         k21,d     c<, ,,<r    g,,,,j         a1,,,,113rr       ",
"         g,,,1a     g,,,,,v   N,,,,1k       .b,,,,,,1ak         ",
"         d,,,,,j    d,1<<1a   b1,,<7        k,,,,,,gc           ",
"         g,,,,,,u   i,11113   g1<,,j       b2,,,,,g             ",
"          j11,,,d    5,,,,,k  a1<<<j      a<,,11,g              ",
"           g,,,,,g   d,,,,,g  a1<<<j     u4,,,11d               ",
"           a8,,,,,x  b,,,,,g51,,<,<pb    b,,,,1b     vgggg      ",
"   vgv      j,,,,,g  a,,,,,,<<,,,<<<<wbMm2,,,,a     j<1,11k     ",
"  a1,,9dv    d,, ,1bk111,,,,,=#$-,,,,<,44<,<<7N    a,,,,,1p     ",
"  y<,,,,,a    t,,,,011,,,+          %,,<<<,1<a   Ng,,,,,,<p     ",
"  j1,,,,,,gz  g<,,,,,,                O<<1,,b    g,,,,,,,a      ",
"  a,,,,,,,,g   g,,,,-                    ,,,4n  a,,,,<,gb       ",
"  k1,,,,,,,g   g,1<,-                    ,,,4b  a,,,<<2ab       ",
"   xg,,,,,,,d  g<<,.       BBBB           &,24ib,,,,1<b         ",
"     p<<,,,,,vx1<,        BBBBBBBB         @<<w9,,,<,b          ",
"      M<<<,,,7j,,X        BBBBBBBBB         :<<<,,,,a           ",
"       bg<1,,,,,>        BBBBBBBBBBB         ,,,,,1d            ",
"         g,,,,<,         BBBBBBBBBBB          ,,,,,c            ",
"         k1,,,,o         BBBBBBBBBBB          >1,,5             ",
"          q<,,,          BBBBBBBBBBB           ,,,5             ",
"          a,,,*            BBBBBB              ,,,5             ",
"          b1,1,,,,,,,,,,,,,,,111,,,,,,,1,,,,,1,,,,a             ",
"           ba111,,1,,111,,11,,11,1,1,1,,1,,1,1,,1bN             ",
"             pkjjkjjkjkjkjjkjjkjkjjkjjkjkjjkjkjjM               ",
"                                                                ",
"                                                                ",
"                                                                ",
"                                                                ",
"                                                                ",
"                                                                ",
"                                                                ",
"                                                                ",
"                                                                ",
"                                                                ",
"                                                                ",
"                                                                ",
"                                                                ",
"                                                                ",
"                                                                ",
"                                                                ",
"                                                                ",
"                                                                ",
"                                                                ",
"                                                                ",
"                                                                ",
"                                                                ",
"                                                                ",
"                                                                ",
"                                                                ",
"                                                                ",
"                                                                ",
"                                                                "
};
