/* XPM */
static char *result[] = {
/* columns rows colors chars-per-pixel */
"64 64 142 2 ",
"   c #1D1B16",
".  c #1F1F1F",
"X  c #211E1D",
"o  c #1E201E",
"O  c #23221D",
"+  c #29251E",
"@  c #2C2A1E",
"#  c #35321E",
"$  c #38361F",
"%  c #1F1720",
"&  c #1E1E21",
"*  c #211E21",
"=  c #1E2020",
"-  c #242322",
";  c #2A2623",
":  c #272823",
">  c #2C2A24",
",  c #252328",
"<  c #2C2728",
"1  c #2D2B29",
"2  c #312725",
"3  c #322D24",
"4  c #3B2F27",
"5  c #322D2A",
"6  c #2F3026",
"7  c #343126",
"8  c #3B3425",
"9  c #3E3927",
"0  c #34322B",
"q  c #3A352B",
"w  c #373A2E",
"e  c #3C392C",
"r  c #3B3631",
"t  c #3D3B32",
"y  c #413926",
"u  c #40362C",
"i  c #433C2C",
"p  c #4A3E2E",
"a  c #433E32",
"s  c #483E31",
"d  c #433F38",
"f  c #4A4325",
"g  c #46412D",
"h  c #4B432D",
"j  c #4E4A2C",
"k  c #50432F",
"l  c #524A2E",
"z  c #56522F",
"x  c #464233",
"c  c #4B4433",
"v  c #4E4935",
"b  c #4C453B",
"n  c #474B39",
"m  c #4F4839",
"M  c #524634",
"N  c #544B35",
"B  c #5A4D36",
"V  c #51463A",
"C  c #544D3A",
"Z  c #5B4F3A",
"A  c #575237",
"S  c #5B5236",
"D  c #5D5937",
"F  c #56513B",
"G  c #5C533C",
"H  c #5E593C",
"J  c #604D3E",
"K  c #625435",
"L  c #635B35",
"P  c #62553C",
"I  c #635A3C",
"U  c #6A5E3D",
"Y  c #66603D",
"T  c #6C623E",
"R  c #72643F",
"E  c #73693F",
"W  c #5C5442",
"Q  c #615642",
"!  c #645B43",
"~  c #6A5E43",
"^  c #655C49",
"/  c #6B5E48",
"(  c #715E45",
")  c #656141",
"_  c #6C6344",
"`  c #6F6844",
"'  c #6E624A",
"]  c #6E6B49",
"[  c #726544",
"{  c #786745",
"}  c #756A45",
"|  c #7A6C46",
" . c #746549",
".. c #746A4A",
"X. c #7B6D4B",
"o. c #777047",
"O. c #7C7347",
"+. c #75704F",
"@. c #7D724C",
"#. c #7A6D52",
"$. c #757250",
"%. c #7D7251",
"&. c #806F4C",
"*. c #827345",
"=. c #83744C",
"-. c #89764C",
";. c #85794D",
":. c #8A7B4D",
">. c #917D4F",
",. c #837451",
"<. c #8B7753",
"1. c #867A52",
"2. c #8C7D53",
"3. c #8D7D59",
"4. c #917D53",
"5. c #8E824E",
"6. c #96824E",
"7. c #8E8153",
"8. c #8F855B",
"9. c #938354",
"0. c #9B8655",
"q. c #968955",
"w. c #9B8A55",
"e. c #94855A",
"r. c #9A8659",
"t. c #978959",
"y. c #9C8C5B",
"u. c #9F905D",
"i. c #A58E57",
"p. c #A38E5C",
"a. c #A39157",
"s. c #A89155",
"d. c #A4925C",
"f. c #A9935C",
"g. c #A79B5B",
"h. c #9D8D61",
"j. c #9F9160",
"k. c #A28D62",
"l. c #A59361",
"z. c #AA9462",
"x. c #A79861",
"c. c #AA9864",
/* pixels */
". & O . & o * & O & . & o . & O . . . . & o . . . . & o = & X O & . & . . . & o = . . o * . X = X & O . * . . * . o . * o & O . ",
". . . & X = o . . . . . X = & . . . & X = X . . . . . . X o o & . . O & . . = X X . o * & o o & = . . & . . . o O & = X . . . & ",
". o . . o X . o . & O . o & . . . . X . . & o - o & * o o & . . . . . o * o . . o . . . O . . . X o . . . . . . & . . o X o . . ",
"o * & o & = X * . o & . X . . . - - = * X = X & * X o . * X * * * = o * & & = X X . o . . & . . = & . . . * . . . . . & = & o X ",
"- . . . . . & o . . . . = = = . * , * o . . . . o o & . & . . & . . . . o . .   . & & . . . . - - . . . . & X & X o o & . . . o ",
"0 ; . . . X X . . . . . . X o . , 5 X = . . . X - & - m > & - X   . - + > - > d 8 ; X X * . . o - . . . X . . . = . * o * o . O ",
"X 5 r - & & & X .   . . - = & - . < & . o : * _ 1.` =.1.3 t I @.I ' G 2.G N 5.d.d.3.i > . * 3 - . . . & & - & . . & & & & & > a ",
"X . > s > . & - F ^ N t - , < & & > v _ O.L [ 2.K h 2.2.c P ~ | h.A l w.:.t.j.%.{ q.9 7 F I ..! G @ . X - O X & . - & & & 6 q O ",
". . . - a t X X I  .i > - , = O k 7.t.{ q.-.d.q.@.H :.d.y.p.d.7.:.9.a.d.1.6.U O 8 7.T N ) y.U N @.+.t o * 1 C [ C & o o w 3 . * ",
". . . * . q b - . F ..I q O > Q =.9.J Q c c f.l.N g p.8.i w.d.f...} c.I X ..2.2.} p ..g.2.r.2.1.i - O = . & 5 X.i . O w @ . & & ",
". . . . * % + t >   K } > - F h :.=.X.| > ! 2.i.7.#.z.U s d.a.d.k T S %.O :.9.u.W 0 W 7.P } &.f.X.O   6 ..H F q % - 0 - . X & X ",
". . & . . * . . 0 : 2 %.0 > p =.=.p.x. .m w A l.D c y.%.I 2.<.f.I 3 V 4.B 7.L o.g H f.O...X.Z N =.N O c T -.@.o = 1 O . X X ; e ",
"- - . . = o * & . - X _ ~ h 2.q.:.| 6.z.-.] o.d.X.I 9.=.4.{ K i.y.E h.w.y.s.u.T A 4.f.7.P =.] @  .~ 3 e K 8.p % - - . * 5 8 3 : ",
"& - > 1 - - . . . . . + C _ I G =.o._ :...N ) 9.q.=.c y.-.y.7.0.f.=.:.h [ g.O.| %.a.l.@.2.,.U [ } [ O _ h.P . & . O - : ; X & . ",
". . o O - 3 5 ; . . & o O a # C _ x ;.} c   v | M #.I T { 7.f ,.2.i ! A y.S N l.K U 9.h @.e.| 4 I ..8 3.G X . X 1 t - = . . & . ",
". . & . . X O > 3 1 0 0 < q V C X.! T c.f.U N 7.+.k y.( @...@.9.K F _ :.y.:.@.*._ ^ | #.S | h.! y ;.G h - . > e 5 X & & . o . X ",
". & = & = & , 1 ; > > O ; M <.v H - A G <.d.2.f.d.} @.[ I ' [ f.=.l ( i.d.,.Z 9.| <.*.d.e.U =.;. .K > t 7 t x > > > - ; O O > 0 ",
"0 > o . & = O o . . X > a g k.3 0 > ) X K d.4.w.d.w.T 8.C _ =.y.p.=.y.z.k.r.d.p.} :.r.0.4.l.r.:.q.<.S v q > O - - > > 3 : O O . ",
"- 1 8 0 3 - X * . . & O > p 3. .U X.x.*.-.0.=.L d.d.l.*.G *.2.=.4.;.q.9.d.f.y.X.! 2.2.y.d.p.l.e.I B ,.G O = . O ; > 1 O & . = . ",
"* X . O > 0 > = = - . 0 C ,.R X.I H H x 8 0 a c 1.=.C > G =.@.q.-.1.G P 0.-.G r 8 i 1 0 I 2.y.q.N q x B , = > > : = . . . * ; > ",
"q q t w 1 1 > o o = 1 i N [ 2.1 O 1.U @ Z 3 g > 8 c ; - _ @.q.d.k.1.~ W i e < r > F W . b C j ` }  .8 F 0 ; X . o O 1 0 q 8 w q ",
"o O * O > 3 w e e 6 - C $ | H . 6 m F w 0 C x O O 6 c ,.e.d.j.=.2.r.{ U 3 . * e W I N d q I %.T q.h.I _ @ . ; q t r 0 > - * . . ",
"= & = & . . & * O > 5 0 > X.h q 7 r c F q 3 O , , H 8.9.:.@.G N T | [ w...3 > 0 0 3 e q @.3.X.y.H  .2.9.g e e > O . . . & & . . ",
"6 > : , - > 0 1 1 1 , h 0 2 X.2.c ..N Y G e 4 q X.D U ;. .8 %.9.1.i _ { [ B P > - 5 C i [ X.9...O.w.=.U ~ > . & & O . . & - > 1 ",
"= . . . = = = O O - ; v b O I ( ..S s m a B e.` } d.q.| y.U p.d.f._ 9.l.[ e.R [  ., 1 F G ` e ..:.X.e.8 W 0 % . . . & & & - O - ",
". = . - - - > > > , q G p X ,.{  .p ^ _ <.N C X.y.=.l.>.p.-.y.d.d.} ;.d.=.2.*.2.N h H _ G ; 8 8 | x ` 8 7 q ; + 1 0 > * * * . & ",
"= - - = - = - > - ; > i  .8 ..X.Q Q V 8 ) Q U [ 7._ ` p.d.:.4.d.p.2.y.p.2.[ d.K ! e.N c ~ c v %.{ 0 F M 1 0 1 ; > 3 < ; ; > 0 0 ",
"- ; > > > 1 1 > - - - a @.I Z W g ` |  .q g @.:.7.| N q.d.p.9.p.i.p.f.f.2...p.7.I 8 ..1.5.N y _ 0.p @.c > o . . . . . . X X X ; ",
"0 q q 5 0 3 5 1 > 1 0 e P c # G _ W B ..8.2.2.9.0.w.#.%.;.4.d.d.p.>.&.[ } o.y.R =.$.@.N G g ( P l.0.h c e & & & & . X . X . . . ",
"& & . .   . . O * > p p G N + 0 _ ;.G a c Q E d.0.w.j 8 ~ &.=.r.*.{  .b 0 1.7.| e.A Y @.O.2.<.C =.:.c Q i w 6 > O . . . . . . . ",
". .   * 1 0 5 @ 0 1 5 1.9.t.N i H | | q.;.} X.=.k.f.1.e 3 ! | G &...a ; ) d.w.3.N ~ @.=.2.@.I 8 e.@.F h O > 3 q d t w > - X & & ",
". > e e 5 - 3 0 O . X _ @.-.X.i e / | S  .e.r.p.l.0.d.*.p t X.m X.N 8 C t.i.i.<.1.d.w.6.@.3 C x 9...v o & & . . . X > 7 q 0 > - ",
"t r > . & 1 @ . - 0 w h ..4.w.A C ;.=.h i ` Y t.r.p.z.4.! e _ g K e ! 4.d.a.0.p.w... .@...A @.H :._ 5 O o . . . . & . . . - 5 r ",
"O . o O o . - 7 0 - & . p  .~ { Q } @.;.9.d...[ y.d.w.d.d.) v 9 C i y.f.d.w.:.y.0.D I y.6.;.I ' v 4 1 0 q 0 - . & & > 1 - o . * ",
"& . & . > t 1 O . & & . 1 q @.w.@.i G 2.7.X.[ e.p.-.K 4.z.I - O 3 M d.f.f.p.d.g.:.T | [ [ P g F ; X & . 8 i q w : o . O @ 0 > . ",
". . - w 8 O . ; = . - 0 q O q X.~ N i ..I _ =.t.y.3.;.@.Q @ = & - - N ^ ! L U _ ..1.2.:.X.l Y v . . . . & 8 + - 1 0 > X   . 0 0 ",
"- 0 7 - . > > X . > 0 O > * q u _ I a 8 t a x g K G 3 q N q 0 @ 1 a c . - C  .3 o > 7 Z N ^ i , > . . . . X 0 O . & > q 0 X . - ",
"t - . = 1 ; X X > > O . ; 0 ; & + q N W @ . & 7 e.,.; c ~ a c q n G A . X [ f.G = < . ; s e ; . > 3 . X . . O 0 . = . . 1 0 > . ",
". & . 0 1 . . 0 : . . ; e O . . + , > e W 3 , y y.@.o 1 ; ; 5 3 . 3 x 1 O B f.[ - > q v > O t . . > 0 X . . . > > . . . . O 7 0 ",
". ; q > . * > > o & . 0 O . . 3 0 . & . q v O > 9._   0 4 K B s 7 N ~ h 0 a l.~ ; 0 C r . . 0 ; . . > 0 . & . O 0 & . . . o . O ",
", q + X . 1 > . & . 1 0 . & - 0 . . . & . c q X ,.C > 8 N } %.c 7 G  ._ 0 i q.` F h C * & . ; < . . . > 5 . . . - - . . . o . . ",
"0 . . * + > . . . > 3 O & = 0 - & o o . . 0 Z 2 _ p Z q X.X.&.I g c _ X.i c ,.G M / 5 & & & & , . . . . < > . . = = - . . , - . ",
"X & & * 0 o . . O 6 . . & - > & . : o . . . C M C x G N :.*.X. .Q ` | =.N W N v / Q . & & - & * . . . . & ; * . = & . & . O 0 , ",
"& . * - > . . = @ . . . - > & & - , O & . . F G W 4 G _ 9.-.4.X.T 3.:.3.Z b 8 ^ P 8 . & . . . . . . . . . & = - = - . . . . O e ",
". . . : O o . , - = . . > - X X 0 - . . . . 3 ..G x ' E 9.p.p.-.q.p.2.,.P s * u ^ o . . o & . - & & - O . . . = * o . o . . . * ",
". . O , o . & X > > . - , . & O 0 . . = . X * X.B 0 I | :.6.p.<.4.d.w.:._ q > c G . . . & o o * X . O 7 O . o . o * o * . . * & ",
". . - * & & * + w . . , - o . 3 1 & . . & O . C G 8 0 | *.0.p.9.r.p.y.X.c < 3 K i . . . o o X . o . . + 0 . . & & X . . o . O & ",
". . . . . & . e > & o X o & . 0 - & . . . & X ; F 8 0 3 | p.p.w.y.l.-. .3 > 3 #.6 & . . . & = . . . o . 0 ; . O & o o & . & = & ",
". = X & & & @ 8 . & = X = O * 0 X & . . . O . . N _ 9 - i 2.w.d.p.r._ 8 0 w G ' . . . . X o . . . & & & O 0 O * & . o * o . & & ",
". . X o . . w + . & X o . & - 0 . . . . . & . . a I I 3 5 # ,.f.f...3 5 3 G G M . = . . = & . . . O & & . 1 1 X & . & X & O . o ",
". . = & . ; 5 . . & o & X . > 1 & . . & . o . . Z [ P q 0 0 # B B @ 4 q M B ;.A   & & . X = & . O . = & . O e & & X . o . . . . ",
". & . O O 1 - & . . . . & & > - & . . O . & . . U 9.P ; 1 c C v x V G @ > M 9.T . . . O & . . O & . = X . . 0 1 . o o * . . - . ",
". . . . - , . . O & X = . & - - . . . & . . . & c y.k.H > > 6 w 8 0 0 @ c  .9.G . . . . . o * & . . . . = X - 6 . O . * . . & . ",
"= . . & o o . . . . = X . X . . & . . o . . . & q =.p.e.N w q > - > 8 o.y.p.7.@ % . . . . & o . . & . . . . . - . & o o . . o . ",
". . . . * . & & & . & o . . . . & O X . . . * . O G 9.l.2.@.3.E ,.{ 4.l.d.y.! . = . . . . . . . . O . . = & = = . . . . & . * o ",
"X = & O o . O . . . . . . & . . . . = . . & o . & 3 k *.w.f.d.s.d.f.d.d.d.;.q . . . . & . . . . o & & . . X . X . . . . . O & . ",
"* o . = o * . & . . & . . & O & . . o & . . . & . . - c X.y.w.d.f.d.p.z.7.N . o & . . o & O . - . . . & . . . & . . O & . . & o ",
"o & X . . o . . = . . O . o . . . . & O . . . & . . . O 8 e A ..2.>.h.,.F . = . . O . . . & o * = . . . = . . . . . & o . . X . ",
". o . . & O . . . o * & = X . . . & . o & = . . . . & & o . O @ e e i 5 * . o . . & o & . & o o . . & O . X & O & & . . . . = & ",
". * . . & . . . X & o . . o & . O & . * o X & O . . o & . o . . X & . % X O & . . = X . . . X & = X = X o & . = O . . . . & . O ",
"o & O & o . - . . . . O . . & . = . X . . . . & . . . . X = & . O X o * X o * . O & . . O & * o . O . & . = X X o & . = . = . . ",
"* o . . * o . . . . & & & O . . . . = . & . . O . . . . o & O & . . . o . . . o . & . . & o . * . & . . o * & o X = X X . . = X ",
"= X . . X & . . o & . . . = . . . . O & o X o & * o o . o X o . . & . . & . * o X = o & . . . o & X . . . . . . & O & o . . . & ",
". o & . o & . . & O o * . X . = . & . . . = * o . . . . * o & . . . . . . O & . . = X . . . o * o . = . . . = . . & . . . & . O "
};
