/* XPM */
static char *_601640849530[] = {
/* columns rows colors chars-per-pixel */
"64 64 256 2 ",
"   c #0D141C",
".  c #081219",
"X  c #10161E",
"o  c #13191F",
"O  c #070B19",
"+  c #0E1622",
"@  c #111622",
"#  c #131A23",
"$  c #151C2B",
"%  c #191E29",
"&  c #161F31",
"*  c #2C1B23",
"=  c #1A212E",
"-  c #1C2635",
";  c #242936",
":  c #38393B",
">  c #312D32",
",  c #56151E",
"<  c #4C1923",
"1  c #691928",
"2  c #543134",
"3  c #683B3B",
"4  c #722F32",
"5  c #422D1E",
"6  c #734438",
"7  c #4E4D2E",
"8  c #293647",
"9  c #373944",
"0  c #2A3B54",
"q  c #32374E",
"w  c #1B3250",
"e  c #503B50",
"r  c #6B3E44",
"t  c #723C45",
"y  c #384557",
"u  c #304254",
"i  c #33526F",
"p  c #1C4C6F",
"a  c #494949",
"s  c #484858",
"d  c #57475B",
"f  c #585856",
"g  c #525150",
"h  c #6A4349",
"j  c #794747",
"k  c #6A4856",
"l  c #774A56",
"z  c #725655",
"x  c #67645B",
"c  c #78625B",
"v  c #4B5668",
"b  c #575968",
"n  c #4E556D",
"m  c #775568",
"M  c #6C536E",
"N  c #596678",
"B  c #58646C",
"V  c #696965",
"C  c #79756A",
"Z  c #676A76",
"A  c #7B7B75",
"S  c #6F6E6D",
"D  c #5D685F",
"F  c #AB181D",
"G  c #B9191A",
"H  c #AC1A21",
"J  c #89272A",
"K  c #942A2F",
"L  c #AF2E30",
"P  c #9A261F",
"I  c #D41818",
"U  c #D8281B",
"Y  c #D21D23",
"T  c #C9272A",
"R  c #DC2325",
"E  c #D82629",
"W  c #D93739",
"Q  c #CF2E33",
"!  c #E62829",
"~  c #E93638",
"^  c #E62E31",
"/  c #EA1517",
"(  c #A65F1F",
")  c #DC423D",
"_  c #E5413D",
"`  c #CD6817",
"'  c #993B48",
"]  c #AA3A45",
"[  c #CF3746",
"{  c #E43B42",
"}  c #E02E58",
"|  c #DE3C63",
" . c #844B4B",
".. c #854A4A",
"X. c #87524E",
"o. c #8A5654",
"O. c #925757",
"+. c #8D4C4F",
"@. c #A65655",
"#. c #B95157",
"$. c #95645D",
"%. c #8F615E",
"&. c #8A5B64",
"*. c #8F5B6D",
"=. c #AC596C",
"-. c #8D6F71",
";. c #AD6C70",
":. c #A9635E",
">. c #C94448",
",. c #D54447",
"<. c #D35057",
"1. c #E64549",
"2. c #E74B56",
"3. c #E5555A",
"4. c #D2576A",
"5. c #E65B65",
"6. c #C96E74",
"7. c #E56A71",
"8. c #7C827B",
"9. c #B59A19",
"0. c #CFB012",
"q. c #CD9312",
"w. c #E4DF08",
"e. c #888477",
"r. c #948D7B",
"t. c #9E947C",
"y. c #AD8D79",
"u. c #C5907A",
"i. c #226B8E",
"p. c #52748E",
"a. c #757B88",
"s. c #6C788B",
"d. c #927685",
"f. c #B4728D",
"g. c #AD79A2",
"h. c #CA7A92",
"j. c #E87EA2",
"k. c #208BAC",
"l. c #768593",
"z. c #5890AE",
"x. c #6E93AD",
"c. c #6797AE",
"v. c #0BB1D4",
"b. c #07BEE2",
"n. c #70AFCB",
"m. c #7999CD",
"M. c #08E8FD",
"N. c #16D5EE",
"B. c #75C9EA",
"V. c #66DBED",
"C. c #878987",
"Z. c #938D83",
"A. c #979385",
"S. c #848994",
"D. c #8A9499",
"F. c #969B95",
"G. c #8B8E8E",
"H. c #A59C88",
"J. c #A79A98",
"K. c #AF8F96",
"L. c #9BA49A",
"P. c #ABA28B",
"I. c #AAA696",
"U. c #B4AB97",
"Y. c #BBB39D",
"T. c #B2A58D",
"R. c #8997A8",
"E. c #979BA7",
"W. c #8D98B3",
"Q. c #AE96AD",
"!. c #99A9B9",
"~. c #91A5AC",
"^. c #A9AAA5",
"/. c #BAA9A6",
"(. c #BAB6A7",
"). c #A6ACB6",
"_. c #ABB3BA",
"`. c #B8B8B9",
"'. c #B1ACB2",
"]. c #D28B92",
"[. c #E48991",
"{. c #C9AA9B",
"}. c #DC8DA4",
"|. c #FC99B4",
" X c #ED90A8",
".X c #C7ADA7",
"XX c #C5BAA7",
"oX c #D2B3AC",
"OX c #C3B9B5",
"+X c #D5B9B3",
"@X c #D0A6AE",
"#X c #E5ADB6",
"$X c #BEC1BA",
"%X c #CAC3AA",
"&X c #C5C4BA",
"*X c #C9C6BB",
"=X c #CCC9BD",
"-X c #C6C2B5",
";X c #D3CBB8",
":X c #D7D2BD",
">X c #90B4CA",
",X c #A7B6C4",
"<X c #B7BDC5",
"1X c #A8BDD3",
"2X c #8593C3",
"3X c #C6BCC3",
"4X c #D7B8C9",
"5X c #D9BACE",
"6X c #E6B6CB",
"7X c #8EC4D8",
"8X c #BBC4C9",
"9X c #B8C7D6",
"0X c #B0C9D6",
"qX c #90D7EF",
"wX c #AED7E6",
"eX c #92E7F7",
"rX c #B0EBF8",
"tX c #C4C4C6",
"yX c #CCCBC2",
"uX c #C5C6CA",
"iX c #CBCBCC",
"pX c #C9C6C8",
"aX c #D4CAC8",
"sX c #D8D4C9",
"dX c #C5CCD5",
"fX c #D8C9D4",
"gX c #CCD4D9",
"hX c #D2D3D3",
"jX c #D3D6DA",
"kX c #D5DADC",
"lX c #DADBDD",
"zX c #DBDAD5",
"xX c #CDD0CD",
"cX c #E4D9D9",
"vX c #E7CDD5",
"bX c #DEE1DD",
"nX c #E2E3DD",
"mX c #E6E1D4",
"MX c #C9D8E3",
"NX c #DCDEE1",
"BX c #D4DCE3",
"VX c #E6D9E2",
"CX c #F2D7E5",
"ZX c #DDE1E3",
"AX c #DAE5EC",
"SX c #D8E8F1",
"DX c #C9E8EF",
"FX c #E4E5E2",
"GX c #E5E9E4",
"HX c #EAEAE5",
"JX c #E7EAEB",
"KX c #E4ECF2",
"LX c #E9EEF3",
"PX c #EAF2F7",
"IX c #F6F7F8",
"UX c #F2EFEC",
/* pixels */
"A A.XXY.XXS C.%XI.8.I.^.L.8.l.:X:X%X:XmXF.F.:XsXmXL.L.F.L.a *.M i.8 e i.0 q q f.i v.q q MXIXIXIXN q  Xp.b.M.M.i.0 }.|.|.f.k.M.v.",
"Z.A XXY.XXA.G.Y.^.8.l.$XmXl.L.:X:X:X:XmX&X^.mXmXsXF.=XxXC.v l *.u y m 0 q q q  X*.k.p 8 ,XIXPXIXE.q h.d.b.M.b.p f.|.f.f.f.i.b.w ",
"I.D U.(.%XI.8.%XXX8.8.^.L.l.L.8.L.:X:XmXmXL.sXmXxXL.sX=XF.G.d f.y m *.0 M q d  Xj.n i.8 a.IXIXIXVXq *.f.i.b.p s.|.}.n n j.i.i.i.",
"T.C.U.%X(.U.P.I.C.V 8.^.%X8.(.l.Y.:X:XmXmXL.L.mX:XL.xX^.sX^.v d.d.}.d.8 =.e M f.f.;.p 8 n LXIXIXLXs.n h.i.i.e }.}.M <Xs.f.s.p i.",
"H.T.U.P.A.r.8.S 8.Y.:X:X=Xl.L.Y.U.L.L.:XsX=X(.sX=Xl.L.$XmX:XZ *. X|.f.- h.m *.k ; f.d 8 y DXPXIXIX3Xq f.d q h.|.M uXIX).M g.q p ",
"P.T.T.-.g D 8.I.%X%X:XsXL.8.I.L.P.T.Y.:X-X%X:XsX:XF.^.sXsX:Xa.*. X|.h.2 h.j.f.s M k ;.; y rXV.eXIXfXw d.g.h.|.M 1XIXIXJXM j.e 8 ",
"T.H.T.T.A.P.Y.Y.Y.%XsXmX:XI.t.%XXX%X;X-Xx f e.(.:XsXsX:XsX:XF.z  X|. X;.r }.h.b aXM d.e 0 wXN.V.IXLXN e |.|.M Q.UXCXIXrXp.h.f.f.",
"H.t.H.U.Y.U.T.P.U.=X:X:X%XI.8.Y.XX%XI.D g g u : D F.=XsXsXmX_.c f. . X Xd h.=.A UXQ.k d 0 dXrXDXPXIX'.8 f.m W.IXCX|.UXN.b.M |.f.",
"P.g : t.T.t.r.> D =XsX:X%X%Xr.8.%XY.g x P.I.I.8.g q A sXzXHX'.m m d }. Xe f.&.D.IXcXS e 8 gXIXIXrXrXJXs ; S.eXV.VXvXCXeXN.n &.& ",
"a : : t.t.8.e.; o 8.(.%X%X%XY.8.XXe.8.XX%XY.Y.%X(.A A.sXsXUX/.M m Z f. Xs m k Z _.hX<Xd 0 MXIXIXV.N.rXzXE.PXeXM.DXIXIXJXSXD.q W.",
": f r.t.t.x t.C 7 D D I.%X%X%Xt.r.x I.%X%XY.%X%X=X=XOX`.I.XXK.M -.b &. XZ n q a.hX_.).b p 5XLXJXrXV.SXIXIXIXSXqXSXLXUXCXIXVXfXIX",
"e.a -.T.e.7 t.T.f A.r.V H.Y.%XY.f C %X%XY.%X%XY.J.I.U.OX&XpXF.b d.C.b ].R.d.s E.IXUXE.E.Z OX].@X3X{.h.[.[.].h.j.].].Q.Q.Q.6X5X,X",
"t.c f 8.7 e.t.t.C 8.Y.T.g f U.%XS C ;X%XXXXXI.A.Y.OX:XsXmXUXaXZ a.).p.f.Q.'.s.S.hX8XuXUXFX`.6.fXdX#X2.2.5.2.2.5.5.5.f.2X2X2XQ.h.",
"x x = 7 e.y.U.t.t.D H.D V 8.V T.C x %X(.U.Z.Z.XX-X:XaXsXHXnXnXa.a.`.x.a.,X9XW.R.kXGXUXJXUXOX].MX<X3X2.{ 1.{ 4.g.g.| h.g.h.m.g.5.",
"7 g > : e.t.T.t.T.V f 8.Y.Y.t.x D : : ; ; : Z.*X=X;X;XzXGXGXGXE.a.5X!.W.>XeX1X,XgXFXHXUXIXOX4.@XfXh.{ { { ~ 2.4.h.} g.h.4.g.f.h.",
"C e.x : : 8.P.t.t.C f Y.%X%Xt.f ; = = # # o % 9 A (.sXaXHXGXcXOXR.1XuX!.>XrXMXMXkXzXHXUXUXOX>.7.3.^ L [ [ ] [ [ [ } ] f.=.| ] } ",
"x e.C g f g g t.H.V V %X^.g @ @ # # & $ @ X % # $ : C.(.&XcXcXxXE._.hX,X>XMXgXdXdXcXaXkXIX/.;.jXh.R E { { Q { [ ^ { } ^ { { { { ",
"f -.D x C e.V g f r.e.C ;   + 8 N D.<X<XE.v % @ % = $ b `.iXfXzX,X<XzX8X<XgXkXkXlXcXhX_.8X'.6.gX@X! Y E H H F F F F F H F F H H ",
"x t.r.C A r.P.A.g A.f   X @ v gXKXPXPXKXPXLX_.9 @ = $ X S VX3X,X'.pXfXfXkXVXFXnXfXjXUXkXD.^.4.uX].Y { R P J J J J J J J J P K K ",
"e.T.r.C V P.U.A.-.g @ X X B MXAXKXKXKXKXKXPXPXgXb $ $ $ ; M Q.a.Q.4X3XpXkXdX,XgXdXMXjX_.8XOXL Q [ Y } ^ 4 h d k r 2 2 2 3 2 h 3 ",
"I.I.H.Z.V U.U.A a # @ @ 8 MXBXAXAXJXKXKXLXLXLXLXJXb $ $ ; ; S.`.).6X6X'.8X1X8X0XdXdXgXGXUXOX[ { 1.T } R J r k k k 2 2 6 j 3 j j ",
"A.P.P.A.C U.P.f @ X #   s.MXDXKXKXKXAXAXKXLXLXLXPXMXq % ; ; ; L.<X6X#XyX8X8XgX8XFXkX<X!.GX/.[ 3.2.T [ ! J k k z h 2 2 j o.3 j 6 ",
"Z.Z.U.H.C U.H.; # # @ 8 9XBXJXAXKXKXKXKXLXLXKXKXKXLXE.= ; ; ; 9 E.pXsXcXgX,XgXVXnXgX!.l.bXOX>.1.<.[ Q ^ J k k z h 2 2 h z 6 j j ",
"H.C I.H.C U.a   $ $ @ l.SXSXAXAXAXJXKXKXLXLXLXKXKXKXZXb = ; ; ; S iXzXzX8X_.dXvXgX9X8XtXnXOX,.3.5.T T ! ' -.d.;.;.-.-.j 6 j j $.",
"H.e.e.P.C.F.o # # + = ,XKXSXSXKXKXSXKXKXLXLXPXgX8XZXPX8X; = ; ; 9 `.zXtX_.,X9XcXkX9X8XgXHX(.>.2.2.T G ^ #.oXoXoX*X;X;X%.t 3 o.o.",
"(.(.-.(.A.V   # #   8 l.R.s.v s.jXKXKXKXKXLXkXy y Z s.D.b = = ; ; G.xX).~.R.,XVXbXMXbX!.8XY.<.3.2.R R ^ #..X{.oXoXoX+Xo.3 3 %.j ",
"*X*XI.F.C.> # + # @ - N l.a.b B dXKXAXKXLXLXAXdXBXAXgX<XN = ; - = S uX_.!.W.8XZXMXDXDXGX~.I.<._ ^ R R E #.{..XoXoX+XoXj 3 2 %.j ",
"sXsX`.V V =   # $ + s.AXKXPXPXPXKXAXKXKXLXLXKXKXPXPXKXAX,Xy ; ; - b hX).).dXNX9XkXDXSXxX~.I.<.5.3.E R ^ #..XoXoX+X+X.Xl 3 6 %.%.",
"=X:X:XD g # X + @ $ x.9X,XE._.dXKXAXKXLXKXAXKXBX<XE.9XAX9Xs.; ; $ s aXfX).0XgXdXgXBXMX9XGXJ.<.~ 1.R R ^ :.oXoX+X+X+XoXO.X.z o.;.",
";X(.Y.8.u   X + @ + N N ; ; s s.8XAXKXSXKXKXKXE.8 9 s E.9XR.8 = % s 4XQ.Q.8XgXJXGXZXBX9XkXD.<.1.5.R R ^ #.oXoX+X+X;X.XO.X.j o.$.",
"OXY.I.-.>   o X # # ; - 8 ; s.E._.PXDXwX1XAXdXa.s s v 8 !.W.u = % d Q.'.OX_.GXFXGXJXBX8X~.D 4.5.3.E ! ^ #.oXoXoX+X+XU.t h 6 o.$.",
"Y.^.U.8.; o o o # ; ; - q Z jXLXMXwXrXrXwXR.9XAXMX8X!.B a.!.N ; @ b 8XiX3XhXZXGXJXJXdX!.8XC.<.2.1.R E ^ <.{.@X#X+X;XJ.6 6 6 $.$.",
"^.(.U.A ;   +   ; !.,X,X8XKXZX>X7XrXrXrXrXrX7XDXAXBXMXjX9X!.R.9 # a.hXiXhXnXFXFXHXFXgXFXIXK.6.3.7.,.! ~ #.@.=.:.6.6.;.+.] ' :.:.",
"^.^.I.C.8 @   + p.0XMXMXdXwX>XqXn.W.wX1X,X0XwXeXqXwXwXgXBX9X1XN # S.jXdXlXkXjXkXZXVXJXUXUXJ.<.~ 5.,.! ~ K ................+.:.;.",
"^.'.'.^.C.; + + s.1X0X>X7X7X>XW.-.#.L T Q L L =.1XeXqX7X,X1X!.N ; `.gXjXNXNXZXBXBXcXFXHXUX.XW 2.2.~ ! ^ @.*. .t 3 3 6 h 3 6 $.$.",
"`.8XtX'.'.s . $ n s.n.B.n.n.d.H T H 1 L L T ! / 4.wX>Xn.n.x.R.p.s gXfXjXkXZXZXjXVXGXlXGXUX(.W 7.3.E E ~ ] &. .3 3 6 t h r 6 $.$.",
"`.uXiXtX`.Z O = ; $ i c.n.0X4 < * < 7 0.( , 2 U Y f.rX7Xz.n.s.v ; <XNXNXlXNXBXNXJXHXFXlXUXJ.^ 7.3.E R ~ L j t 3 3 3 t j 3 j $.;.",
"`.tX<XtX`.a + q & - u i l.v @ + + @ 0.w.w.` 1 , P Q ,XrXqXp.z.v $ S.NXNXNXlXNXFXHXUXHXZXHXU.W 3._ E ! ~ ' j 3 t j t ..d.&.j ;.$.",
"`.tXtXiX'.= $ u $ = z.B.e * 7 1 J 5 9.w.w.0.U F 5 P >.wXqXn.p.v & v lXNXNXNXjXNXHXJXHXZXJX/.,.5.~ ! ! ~ ' m l &.j l t m -.l $.$.",
"`.tX<XtX<X9 + + $ + i 0 , ( q.R U 4 ` q.` q.q.9.w.J 1 ;.wXz.p.; % a.NXFXNXNXBXNXHXJXUXGXZXJ.,.7.3.! R ~ ' M M l r k M p.M o.-.K.",
"'.`.`.<XuXZ O i p.@ y w t H L R ! U R / / / / q.q.Y J l.wXeXm.0 s.<XVXZXNXNXFXnXHXJXUXFXZX/.,.7.5.E ! ~ ] m k l l M n s.M +.=.;.",
"<X<X`.`.tXE.O z.i.& n.n.>X' G F H T Y Y R / / / Y L ).rXz.7X7Xp.x.pXlXlXFXNXFXFXHXFXJXFXZX.X) 7.3.E { ~ ] m e r k t M M M *.;.;.",
"uXtX8XuXgX8Xa n.z.+ z.V.B.n.] P 9.( 9.9.0.q./ / H G.rXrXn.c.p.p.!.jXjXNXlXFXGXHXHXGXGXZXJXXX,.5.1.E { ~ ' l k r e t M M &.*.;.-.",
"iXiXtXtXxXdXs.B.n.$ i p.z.n.s.K J P ( 9.w.0.U G -.qXc.7XqXeXn.p.1XlXNXlXlXlXnXnXJXHXZXZXUX.X) 3.~ T ~ { ] M k r r k d M m *.$.$.",
"tXiXtX`.pXpX~.n.p.. + + + + # : 1 G G U I I I ' n.p.; 0 z.eXqXs._.VXZXFXjXzXlXlXJXZXbXHXUX/.~ 3.1.Y Q ^ K k z l l l z l l m +.$.",
"tXtX`.8XiXhXl.& = @ + @ # #   = 5 F ( 0.9.G J y w + $ $ - i p.x.kXNXlXZXNXjXNXZXBXMXHXnXUX/.W 3.3.R E ~ ) >.>.>.>.#.%.c l *.O.$.",
"`.tXtXtXuXzXa.  # % # # = # = o o 1 L 9.( J > 0 - u x.i.i u - ,XlXNXVXlXNXjXjXNXnXHXHXHXHX/.,.7.5.T T R T L ) Q ~ 3.%.%.l o.o.o.",
"3XpXtXtXuXhXa.X + # # # # = # o o * 1 J 1 * @ - 8 N n.n.n.p N ,XZXNXZXlXNXjXlXnXFXHXHXHXGX/.,.3.3.U 6.4.P a a > L ,.j j X.X...+.",
"$X3X`.uXiXiXtXa.o o @ @ # # # X o = > * * ; i i z.n.n.V.B.p.l.8XkXhXkXkXbXjXkXbXnXHXGXHXHX.XQ ~ _ U ].{.].zXP.x L ) X...X.X.X.O.",
"`.`.`.uXpXiXuX3X9   # # + #   # o % ; = = ; 8 u N B.B.B.z.p.,XdXhXlXkXhXjXkXzXbXnXnXHXHXHXU.W 2.^ U ].u.].IXI.> P ) X.X.X.X.X.+.",
"`.`.`.iXpX3XpX3Xd.  + @ + = # o o o # o = o o . w z.c.p.- N 8XxXhXfXhXjXkXFXbXzXnXnXGXnXGX/.) 1._ T >.T ] r.c 7 P _ O.O.O.+.+.+.",
"xX`.`.iXtXpXpXpX`.b   @ # # = - ; = # = % - i N p.0 + + = D.&XxXhXxXhXzXbXbXhXhXmXnXnXGXnX.X) 7.1.U ) U L %.O.6 L _ @.@.#.@.@.@.",
"xX`.tXhXtXtXpXfX4X4X:   # # = u z.; o = ; 8 0 - = $ = 8 8 ).$XxXhXxXxXzXzXzXyXyXcXnXHXnXGX.X,.7.2.U {.[.) c c 2 H _ @.@.@.@.@.@.",
"xXtXiXhXtXiXfXfX5X5Xe X X # o . o # o = # o o % @ - - = u _.$XxXxXxXxXhXzXxXyXyXzXnXHXnXGXXXW ,.3.U {.u.L f x > P ) o.X.X.X...X.",
"xXlXtXhXpXzX5X5XvX6Xd   o o o o o # # # =   # % $ + + o u `.$X=X&X&X*X*XyXyX=X=XzXnXHXnXHX-X<.^ 2.R ].[.] D x : P W X.X.O.X.X.+.",
"ZXhXOXfXfXVX5X6X6Xj.t .     o   o o o o o o # % % # # X g -X(.XX$X&X=XyX*X*X=X*X:XnXGXHXnX/.<.3.1.U E E L g 7 7 P ) +.X.+.O.X.O.",
"BX5X5XMXfXVX5XCXj.} 1 + + + + + o o o # X # # # # # # . g -X-X`.-X$X=X=X*X&X*X*X-XzXnXnXGXXX>.5._ R / ~ ) >.>.Q ~ W X.X.+.+.o.+.",
"AX<X5XfX5X5X5X6X| } 1 O + + + + o o o o X # # o # # . . g -X-X(.-X-X&X=X*X*XyX*X*XzXHXnXFXXXW ! 3.R I ! T Q T T T >.X. .X. . .+.",
"fX3X5XfXVX5X5X|.} [ < O         X     X o # X X   + v !.Z &X$X-X-X&X*X=X*XyXyX&X*XsXGXnXbXOXW 7.3.! I ! L j ....6  .X.X.+.+.X.+.",
"`.@XfX5X5X5XCX}.[ T , O .   +           X X X X + N BXSXG.$XyXsX(.(.=XyX*X*X=X*X=XzXnXnXbX(.W { ~ U U ! L j .... . ... . . . . .",
"OXOXvX5X5X5XCX X[ [ ,             O X   . + O - l.1XMXMXC.xXSXkX`.(.&X*X*X&XyX=X*XsXnXnXbXXX,.1.3.E I ^ K j .... .+..... . . ...",
"3X5XVXfX5X5XCX5X4.{ 1 .     .   X X       = s !.wXMXAXBXl.MXlX-X(.(.-XyX=X=X=X*X=XzXGXnXbX/.<.! 2.~ / ! L j j j j .. .j ..j  .j ",
"hXVXfXfX4X5XCX6X}.' * O O   X X X O . . $ p.1XMXAXAXAXAXR.AXjX$X-X&X-X=XxXyXyX=X=XsXnXnXnXOXW 1.1.U I ! L t t j t ..j ....t  . .",
"fX4X3XfX5XVXCX@X2 O       X X     O .   8 l.0XBXKXKXKXZXR.KXKXkX-X&X&XsXsXsXyX*X*XzXmXnXnXOXE 1.1.U / ! L 3 ..t ..t j ......t .."
};
