/* XPM */
static char *result[] = {
/* columns rows colors chars-per-pixel */
"64 64 230 2 ",
"   c #9F390A",
".  c #9E3707",
"X  c #983E15",
"o  c #A13D0E",
"O  c #A23F10",
"+  c #9B4218",
"@  c #A44315",
"#  c #A54619",
"$  c #A6491C",
"%  c #A84C1F",
"&  c #9B512F",
"*  c #A94E21",
"=  c #A64E23",
"-  c #AA5225",
";  c #AC562A",
":  c #AB572C",
">  c #AE5C32",
",  c #A45935",
"<  c #B25E34",
"1  c #B26036",
"2  c #B4663C",
"3  c #B7673C",
"4  c #AC613B",
"5  c #A05E41",
"6  c #82695F",
"7  c #AB6543",
"8  c #B66B43",
"9  c #B66C47",
"0  c #BB734C",
"q  c #BE7A53",
"w  c #B97857",
"e  c #866E64",
"r  c #886F65",
"t  c #897166",
"y  c #8B7368",
"u  c #8F786D",
"i  c #917A6E",
"p  c #947D72",
"a  c #8B7B77",
"s  c #C2744B",
"d  c #C27E58",
"f  c #C06F44",
"g  c #EDAE02",
"h  c #EBAF09",
"j  c #EDB10B",
"k  c #ECB006",
"l  c #ECB313",
"z  c #EDB61B",
"x  c #E7B117",
"c  c #EDB518",
"v  c #ECB622",
"b  c #EEB824",
"n  c #EEBA2B",
"m  c #E5B426",
"M  c #EEBC33",
"N  c #EFBF3B",
"B  c #E7B934",
"V  c #F1BE31",
"C  c #EFC03F",
"Z  c #F3C237",
"A  c #978074",
"S  c #998276",
"D  c #9C867A",
"F  c #9E897C",
"G  c #91807C",
"H  c #A38C7E",
"J  c #B79377",
"K  c #B9A072",
"L  c #C2835D",
"P  c #CB8358",
"I  c #D99757",
"U  c #DBA15B",
"Y  c #E7B453",
"T  c #C58A65",
"R  c #C58965",
"E  c #C9956C",
"W  c #CC9672",
"Q  c #CC9A79",
"!  c #D39E7B",
"~  c #D79F69",
"^  c #D0A17F",
"/  c #D5B071",
"(  c #E3BC6B",
")  c #EFC144",
"_  c #EDC24B",
"`  c #F1C447",
"'  c #ECC557",
"]  c #F0C654",
"[  c #F1CA5C",
"{  c #F2C954",
"}  c #EBC666",
"|  c #F1CC67",
" . c #F1CF72",
".. c #F2D278",
"X. c #ECCD77",
"o. c #00A6B6",
"O. c #0BA9B7",
"+. c #0CAAB8",
"@. c #07A8B7",
"#. c #14ACB9",
"$. c #1BADBA",
"%. c #10A7B7",
"&. c #24AEBA",
"*. c #24B1BB",
"=. c #2CB2BC",
"-. c #37B5BD",
";. c #42B9BE",
":. c #48BABF",
">. c #77B7B5",
",. c #74C0BF",
"<. c #35B9C2",
"1. c #4CBCC1",
"2. c #46BCC1",
"3. c #53BEC1",
"4. c #59BEC2",
"5. c #70BCC0",
"6. c #4AC2C9",
"7. c #5CC2C4",
"8. c #64C3C3",
"9. c #6CC6C5",
"0. c #78C9C6",
"q. c #9B9887",
"w. c #A38E81",
"e. c #A99486",
"r. c #AD9A8B",
"t. c #A79386",
"y. c #B19D8E",
"u. c #B19788",
"i. c #AD9C93",
"p. c #91A998",
"a. c #B5A393",
"s. c #B9A695",
"d. c #BCAB9B",
"f. c #B7A89E",
"g. c #B0AE8C",
"h. c #90B0A9",
"j. c #AFB5A9",
"k. c #D5AB8A",
"l. c #D3A786",
"z. c #C2AF9D",
"x. c #C2B19E",
"c. c #DAB394",
"v. c #DEBB9D",
"b. c #DBB799",
"n. c #CAAB86",
"m. c #E6BE9F",
"M. c #C4B3A2",
"N. c #CCBCAA",
"B. c #C8B8A6",
"V. c #DEBFA2",
"C. c #E0BFA1",
"Z. c #A1C6BA",
"A. c #EED28A",
"S. c #F2D68B",
"D. c #F3D585",
"F. c #F4DC9B",
"G. c #F3D993",
"H. c #E7CC8F",
"J. c #CFC2AD",
"K. c #D3C3AD",
"L. c #D4C5B2",
"P. c #DCCEBA",
"I. c #D8CAB6",
"U. c #DED1BC",
"Y. c #CEC1B1",
"T. c #E3C6A9",
"R. c #E4CAAC",
"E. c #E3C4A7",
"W. c #F4DDA3",
"Q. c #F4DFAA",
"!. c #E6CDB3",
"~. c #E1CEB9",
"^. c #EAD5BB",
"/. c #E8D5BA",
"(. c #F2D9BA",
"). c #EFDCA9",
"_. c #F4E1AD",
"`. c #F8E4AF",
"'. c #F4E2B4",
"]. c #F5E5BB",
"[. c #F8E7B6",
"{. c #83CBC7",
"}. c #8BCDC7",
"|. c #8ACCC7",
" X c #92CFC8",
".X c #9AD2C9",
"XX c #8BD2CE",
"oX c #ABD6CB",
"OX c #A3D4CB",
"+X c #BBDBCD",
"@X c #B2D8CC",
"#X c #BADED1",
"$X c #C4DECE",
"%X c #C7DCCC",
"&X c #DDD5C5",
"*X c #CCD8CB",
"=X c #E2D6C1",
"-X c #E6DAC4",
";X c #EDDDC4",
":X c #EADFC9",
">X c #E6DAC8",
",X c #F0DFC8",
"<X c #CEE0CF",
"1X c #D7E1CF",
"2X c #CBE2D2",
"3X c #D4E2D1",
"4X c #DAE4D1",
"5X c #D5E9D8",
"6X c #EDE3CC",
"7X c #ECE1C7",
"8X c #F4E5C4",
"9X c #F6E8C5",
"0X c #F2E4CC",
"qX c #F5E9CC",
"wX c #F8E9C9",
"eX c #E3E6D2",
"rX c #EEE6D5",
"tX c #ECE9D3",
"yX c #E9EAD9",
"uX c #F6ECD4",
"iX c #FBEED5",
"pX c #F6EEDB",
"aX c #F8EFD9",
"sX c #F2E7D1",
"dX c #FCF0D6",
"fX c #F7F0D9",
"gX c #FAF2DA",
"hX c #EFF0DB",
"jX c #FAF4E2",
"kX c #F7F1E0",
/* pixels */
"@.=.o.o.o.+.4XiXaX^.% @ @ @ 2 uXuX].z m g g D.pXfXM.e t y e N.gXuXiX-.@.#.$.o.o.#.4XiXuXuXuXuX2 @ @ @ @ @ # > $ @ @ @ $ T.aXuXuX",
"o.#.o.o.o.o.{.dXuXuX3 @ @ @ ; 7XpX9Xz x g g G.pXfXr.e y y u -XuXiX$XO.o.#.O.o.o. XiXiXuXiXuXL o @ @ @ @ @ # : @ @   2 !.aXuXuXuX",
"0.o.o.o.o.o.$.eXiXgXl.o @ @ @ !.gX0Xz g g g W.pXuXF t t e t.iXuXiX7.o.o.o.o.o.:.uXuXuXpXpXE o @ # @ @ # @ @ @ @ @ R 6XfXuXuXuXuX",
"iX3.o.o.o.o.o.}.dXfX^.$ @ @ o c.fXuXn g g k _.pX7Xi t u e N.iXiX<XO.o.o.o.o.$.eXiXuXuXgXQ @ @ @ @ @ @ @ @ @ o - c.fXaXuXuXuXuXuX",
"iXeX*.o.o.o.o.*.tXiXfX0 @ @ o W gXpXN g g l ].iXU.y t t i :XiXiX8.o.o.o.o.o.oXiXuXuXgXl.@ @ @ @ @ @ @ @ @   8 !.fXuXuXuXuXuXuXuX",
"uXiX@X@.o.o.o.o. XdXgXk.o @ @ 0 fXpX) g g l 8XgXN.e u e r.iXiX3X+.o.o.o.o.9.iXiXuXgXc.@ O @ # @ @ # @ @ @ W uXfXuXuXuXuXuXuXuXuX",
"uXuXiX9.o.o.o.o.=.tXiX(.* @ @ < sXkX] g g z qXgXs.e y e J.gXiX9.o.o.o.o.=.tXiXsXgXC.$ @ @ # @ # @ @ O : v.gXpXuXuXuXuXuXuXaXaX].",
"iXuXiXsX-.o.o.o.o..XdXfXq o @ $ (.fX| g g n uXiXt.r t p 7XiX4X#.o.o.o.+.$XiXiXiXR.* O @ @ @ @ @ @ o 0 (.fXuXuXuXuXuXuXuXfX].| l ",
"P.fXuXiX%X+.o.o.o.-.sXgXc.o @ @ K.gX .g g V iXrXA t e r.iXiX0.o.o.o.o.|.iXuXgX!.: o @ @ @ @ @ O # Q uXuXuXuXuXuXuXuXkX9X .x g g ",
"y L.gXuXdX}.o.o.o.o.@XiX;X- @ o l.jXD.g g Y iX;Xu y e L.uXeX#.o.o.o.;.uXuXgX(.> @ @ @ @ X & X > E.gXuXuXuXuXuXuXfXqX..z g g g x ",
"t u I.gXiXiX1.o.o.O.:.iXgXd o o R jXG.g g { jXL.e t p 6XiX{.o.o.o.$.4XiXfX7X2 @ @ @ @ # X 5 w ;XgXuXuXuXuXuXiXiXS.n g g h g j m ",
"t t p U.iXiX4X$.o.@.#.@XgXb.@ o 8 iXW.g g [ jXM.e e a.pX:X$.o.o.o.OXiXiXqX9   @ @ @ @ @ + n.eXfXuXuXiXuXpXpXF.V g g g g g g g x ",
"y y t A -XiXiXoXo.o.o.;.dX0X; @ ; 0X`.k g  .jXr.e t I.dX|.o.o.o.8.iXuXuXq o @ @ @ @ o 1 R.gXuXuXuXuXpXpXW.C g g k g k g g g g g ",
"t y y e D :XiXiX8.o.o.o.+XgXL o # !.].j g D.fXF e S uXtX&.o.o.=.tXiXpXL o @ @ @ @ @ L 0XgXuXuXuXuXpX`._ k g g g g k g k g g k g ",
"t y y y r w.6XiXrX=.o.o.3.gXC.@ o c.wXl g G.rXi e s.gX.Xo.o.O.+XiXgXE o @ @ @ @ % k.aXuXuXuXpXpX'.' j g g g g k k g k g g g k g ",
"r.t t t y e t.uXiX%XO.o.@.$XwX: o W dXz g F.&Xt t P.uX=.o.o.{.gXgXQ   @ @ @ o 3 !.gXuXuXuXpX8X| l g g g k g k g k k g g k k g k ",
"iXJ.i y y y e r.uXiX{.o.o.3.gXE o 0 iXb g `.N.e F uXOXo.o.;.iXgXl.@ @ @ @ @ T 0XpXuXuXiXwX .z g g g g k g g k g k g g k g g g g ",
"uXfX&Xi.u t y e a.iXiX;.o.O.2XE.O < uXM g [.f.e z.iX-.o.#.*XgXc.@ @ @ @ - b.fXiXuXpXiXD.v g g g g k k g g g g k v x g g g g g z ",
"uXsXpXrXd.t t t r d.gX4X#.o.8.iX< $ ;X) j 9Xt.r ^.oXo.o..XgXC.# @ @   9 ^.fXuXuXuXS.n g g g k g g k g k g g h B B z g k M | F.9X",
"G.6XyXsXpXL.p e y r M.gXOXo.O.3XW o V.} l 8Xp F uX-.o.4.gXR.* @ @ @ W uXuXsXfXF.M g g g g g g g k g k g g g m B B } S.].uXpXpXuX",
"B ' A.qXpXgX:Xt.e r t N.gX4.o.9.!.O l.X.b -Xt M.#Xo.&.yX!.- O o - V.fXfXpX).Y g g g g g g k g g g g g h v ' A.).0XpXpXpXuXuXuXuX",
"_ x g M G.uXgXuXz.u e y L.yX=.+.4X< d  .V L.y -X2.o.#X;X< o O q ^.jXfX'._ g g g g g g h g g g g g b ' G.:XrXrXpXuXuXiXuXuXuXuXuX",
"h k g g g N W.pXjXI.S 6 u ~.$Xo.0.! 8 ..N M.H $Xo.0.wX1 o @ Q pXkX].[ j g g g g g g g g g l ) ..`.sXpXrXyXrXuXsXuXuXuXuXuXuXuXuX",
"g g g g g g g _ Q.gX0Xr.e i -X0.#.L.< X.{ y.x.1.<.6X8 . < E.jX9X| h g g g g g g g j n | F.8XpXfXiXpXuXuXrXuXuXuXuXuXuXuXuXuXuXiX",
"' n k g g g g g h ' '.pXB.y p =X<.9.s ( [ r.Z.#.<Xs . L ,XiX..l g g g g g g z _ D.'.sXfXfXuXuXuXuXuXuXuXuXuXuXuXiXuXfXdXfXfXiXqX",
"pXqX'...) z g g g g l | wX=XS S %X<.J I ( f.6.XXP @ k.uXD.v g g g g j M | W.wXpXfXuXuXuXuXuXuXuXdXdXfXfXfXaXtX7X-XI.J.x.s.r.w.A ",
"iXpXpXpXfX9XF.| V j g g l  .;Xi.H {.>.I ( h.7.T > R.F.n g g l b ' S.].pXpXpXiXpXaXgXgXaXfXuX6X:XP.L.B.d.r.t.D A u t e e e r r r ",
"R./.8XuXfXgXjXjXiX[.S._ z g z ..x.r.5.E / >.J L A.Z g j N X.(.sXfXjXgXiXuXtX7X/.I.J.d.y.t.F A u y e e e e e t r t y y y y y y y ",
"@ % ; 1 0 L W k.C.!.&X:XsX`...Z ` } j.q.g.q.U { Z [ F.8XrXeX>X&XJ.M.a.r.w.A p y r e e e e e t y y y y y y t y y y y y y y y r e ",
"@ @ @ O O O   o O X 5 & 3 w R Q ~ Y Y g.g.( } k.x.f.i.i.t.D p y r e e r e y t y y y y y y A u t y y y y y y y y y y y y y y e a ",
"@ @ @ @ O O O o O X , = * < f P J q.p.g.K h.>.p.s.u.u.i.w.y r r e e t r t y y y y y y y y A u t y y y y y y y y y y y y y y e G ",
"O @ # - < 9 d W l.b.!.;X0X1XOX7.2.9.j.Q g./ p.6.6.OX<XeX,X-XI.N.z.a.e.F p u y e e e e r r r t y y t y y t y y y y t y y y y y e ",
"c.E./.,XsXiXgXgXgXhX+X{.<.@.O.9.j.r.} K h.} P J  X1.*.=.8.oXeXdXgXgXiXuX0X:X~.L.B.d.y.w.D i u r r r e r r t y y y y t t y t y y ",
"iXgXiXiXiXuX3X X4.$.o.o.o.7.3Xz.F H.Y t.h./ [ q f &XXX#.o.o.#.;.{.$XtXiXdXdXiXgXdXgXfXdXuX6X/.P.J.M.s.r.w.S i y t e e e e t t t ",
"iXiXeXoX9.-.O.o.o.o.@.:.2X,Xt.i R.Z ~ t.9.f.` D.9 - m.yX0.+.o.o.o.o.&.4..X3XuXiXiXqXuXiXiXuXfXdXgXaXfXgXuXqX:X=XI.N.x.a.e.F A u ",
"{.1.$.o.o.o.o.o.o.;.+XgXL.p y P.` [ s h.8.u.H.z (.2 o W iX4X8.+.o.o.o.o.o.+.-.0.+XeXiXdXiXuXuXuXuXuXuXuXuXuXuXiXgXiXgXgXfXuX6X:X",
"o.o.o.o.o.o.o.<.oXiXuXd.t y I.D.k H.3 Z.7.e.B.Z ) (.> . 9 ^.gX<X4.@.o.o.o.o.o.o.o.$.6. X<XuXdXiXuXuXqXuXuXuXuXuXuXuXuXuXuXuXiXuX",
"o.o.o.o.o.=..XsXiX-Xw.e y N.].j [ l.3 }.2.z.t.F.g D.-X: . - b.gXiX+X:.o.o.o.o.o.o.o.o.o.O.=.9.oX4XdXdXiXuXuXuXqXqXuXuXuXuXuXuXuX",
"@.%.o.$.}.tXiXgXN.p e r B.iXM g '.8 d {.<.L.u -XV j [.!.* O @ R qXgXiXoX;.o.o.o.o.o.o.o.o.o.o.o.#.:.}.<X6XdXiXiXiXuXuXuXuXuXuXuX",
"o.=.0.eXiXiXqXa.r r r z.jX| g { ^.O l.0.=.&Xr N.G.g n fXV.$ @ O 3 !.gXiX6XOX=.o.o.o.o.o.o.o.o.o.o.o.o.o.=.8.OX1XiXdXdXuXiXuXuXuX",
"0.*XiXiXgX=XF e y e s.kXF.h j [.l.. m.8.$.eXp w.uXn g | jXc.@ @ O * k.iXuXuXsX X*.o.o.o.o.o.o.o.o.@.o.@.o.o.+.#.-.0.+XtXiXiXiXuX",
"iXiXuXiXB.i r y e y.uX9Xv g ` pX2 O (.3.+.4Xt.y >XS.g g F.jXk.@ @ @ @ L 7XfXuXiXeX{.$.o.o.o.o.o.o.o.o.o.o.o.o.o.o.@.o.$.7..X3XsX",
"uXiX6Xy.r t t e e.uXpX_ g g _.!.@ > 0X-.@.4Xs.6 M.iXb g v 9XgX! O @ @   1 R.gXuXiXiX4X9.O.o.o.o.o.@.@.@.o.o.@.@.o.o.o.o.o.o.O.=.",
"gX~.D e t y r w.sXpXS.g g N gXW o 0 pX=.o.<XN.e w.pX..g g _ pXgXW O @ # O $ l.iXuXuXiXiX3X8.O.o.o.o.o.o.o.@.o.@.o.o.o.o.o.o.o.o.",
"s.u t y u e D 7XiX].l g g W.pX<   E fX$.o.#X~.r y =XwXz g g D.gXuXR o @ @ @ O q ;XgXuXuXiXiX2X3.@.o.o.o.o.o.@.@.@.@.o.o.o.o.o.o.",
"e t y y e A -XgXuXN g g N pXT.O O c.yX#.o.oX,Xi e d.jX..g g l (.pXuXd o @ @ @ o : E.fXiXuXuXiXiX#X2.o.o.o.o.@.o.o.o.@.o.o.o.o.o.",
"y y y e p -XgXpX .g g g G.jXE o @ R.4XO.o..XiXH e D uX9Xl g g M uXpX0X0 o @ @ @ O @ Q uXiXuXuXrXiXuX@X-.o.o.o.o.o.@.o.@.o.o.o.o.",
"y y r u P.gXpXW.h g g M uX0X> O - 8X2X@.o.{.gXu.e y P.pX} g g g | pXgX7X2 o @ # @ @ o 0 ^.fXtXyXtXfXdXqX.X=.o.o.o.o.@.@.o.o.o.o.",
"y r u L.gXuXqXb g h x A.jXC.@ @ 3 dX+Xo.o.0.gXz.e r s.&XL.l g g g W.pXgX;X< O @ # @ @ O ; K.pXtXqXuXfXuXdXtX X*.o.o.o.o.o.o.@.$.",
"y t N.dXuXpX[ g g h _ sXfXT     L gXoXo.o.8.dXL.r t p &X1X' g g g b 9XuXgX^.; O O @ # - < 7 Q 0XfXuXuXuXuXuXiXeX0.#.o.o.o.o.O.&.",
"r B.gXiXpXS.g g g g A.kX7X: @ @ ! gX.Xo.o.:.dX-Xy t r N.eX(.j g g g ' pXuXgX!.= O # = , 7 7 @ 8 /.gXuXuXuXuXuXdXiX4X9.+.o.o.o.O.",
"J.iXuXuX].z g g g v 9XfXb.  @ @ C.dX{.o.o.-.iXqXA t e a.gXpX' g g g g S.pXuXgXE.* O , 0 < $ @ O * c.fXfXuXuXuXuXwXdXdX3X8.o.o.o.",
"iXuXpXsX) g g g g ..fXgXL o @ # (.dX0.o.o.=.uXiXt.e r S 6XfX'.j g g g z ].pXuXgXb.@ - 7 @ @ @ # @ @ L 9XfXuXuXuXuXuXuXiXwX$X:.O.",
"uXuXpX..g g g g z 9XpX7X; @ @ > 0XdX8.o.o.*.tXgXa.e y r L.gXpX] g g g g N uXuXuXkXk.@ # @ @ @ @ @ @ @ 1 !.fXuXuXuXuXuXuXiXiXiX%X",
"uXfX_.j g g h g ..pXgXc.@ @ @ 0 fXiX:.o.o.#.eXdXB.r y e a.aXuX_.g g g g g  .pXuXuXpXl.O @ @ @ @ @ @ @ @ % l.aXuXuXuXuXuXuXuXuXiX",
"uXqXn g g g g z 9XuXgXq o @ o T gXdX:.o.o.+.4XdXP.y y t p 6XuXfX_ g k g g h Q.pXuXuXiXW @ @ # @ @ @ @ @ @ @ L 7XfXuXuXuXuXuXiXuX",
"pX| g k g g g | pXpX;X- @ @ o k.gXuX-.o.o.@.%XdX7Xi t y t J.fXpXQ.g g g h g n 0XpXuXuXpXR o @ @ @ @ @ @ @ @   > E.gXuXuXuXuXuXuX",
"D.g g g g g l ].uXgXk.o @ @ @ R.gXtX&.o.o.o.$XiXqXD t y e r.fXuXpX) g g g g g [ pXuXuXiXuXq O @ @ $ @ @ $ @ @ @ # ^ iXfXuXuXuXiX",
"h x g k g g | pXuXgX0 O @ @ : ;XuXeX&.#.o.o.oXiXfXr.t t y i 7XiXiXF.g g x j g g G.pXuXuXgXqX0   @ @ @ @ @ @ : # @ @ 0 7XgXuXuXuX",
"h m g g g l ].uXpX^.% @ @ @ 2 uXiX4X$.&.o.o..XdXdXx.e y y e N.fXuXpXN g x x g g l ].pXuXuXpX0X3 @ @ @ @ @ $ > $ @ @ o : C.gXuXuX",
"g h g g g [ pXuXgXl.o @ @ o L gXiX3X@.o.o.o.}.iXgXL.e t y e e.uXpXfXG.g h h g g g ) uXpXuXuXfX;X1 O @ @ @ @ # @ @ @ @ @ @ W qXfX",
"g g g g k '.pXuXuX8 @ @ @ o ^ gXiX$Xo.o.o.o.0.dXiX=Xy u y t i :XuXuXsXM g g g g g g ..pXuXuXuXfX/.: @ @ @ # @ # @ @ @ # @ @ 0 !.",
"k g g g ] pXqXfX!.$ @ @ @ @ v.gXwX@Xo.o.o.o.8.dXiX6Xp t y y r B.gXuXfXG.g g k g g g l _.pXuXuXuXfX!.- @ @ @ @ @ @ @ @ @ @ @ @ $ ",
"g k g g W.fXuXgXl.@ @ @ @ % !.uXiXOXo.o.o.o.4.iXuXuXH t y t t e.uXuXuXqXb g g k g g g Z uXuXuXuXuXgXc.@ @ @ @ @ @ $ @ @ @ @ @ @ "
};
