/* XPM */
static char *result[] = {
/* columns rows colors chars-per-pixel */
"64 64 247 2 ",
"   c #291A1C",
".  c #2B1D21",
"X  c #221D22",
"o  c #301E23",
"O  c #2F2225",
"+  c #332425",
"@  c #3B2B2B",
"#  c #382828",
"$  c #3D312D",
"%  c #3A2F31",
"&  c #3C3536",
"*  c #2D323B",
"=  c #462C27",
"-  c #43322D",
";  c #4B352B",
":  c #423533",
">  c #453A34",
",  c #4C3B3A",
"<  c #473C38",
"1  c #573C36",
"2  c #53302A",
"3  c #5C3918",
"4  c #59452D",
"5  c #4C423B",
"6  c #54433B",
"7  c #594739",
"8  c #4D5D35",
"9  c #66493B",
"0  c #6F5330",
"q  c #313946",
"w  c #463D42",
"e  c #3F5758",
"r  c #484545",
"t  c #554B44",
"y  c #594944",
"u  c #59524C",
"i  c #565857",
"p  c #4E5156",
"a  c #654946",
"s  c #665448",
"d  c #745846",
"f  c #685855",
"g  c #755D57",
"h  c #70494B",
"j  c #5C6451",
"k  c #78634A",
"l  c #686459",
"z  c #766458",
"x  c #68644D",
"c  c #596966",
"v  c #4B6A6B",
"b  c #686A66",
"n  c #766C67",
"m  c #787569",
"M  c #787874",
"N  c #66726B",
"B  c #575D61",
"V  c #873939",
"C  c #866D38",
"Z  c #996B34",
"A  c #8E5753",
"S  c #87674B",
"D  c #866856",
"F  c #956D58",
"G  c #8C7556",
"H  c #96795B",
"J  c #917749",
"K  c #896965",
"L  c #88766A",
"P  c #967964",
"I  c #8A7C77",
"U  c #997C79",
"Y  c #976E6B",
"T  c #B0736B",
"R  c #A26C52",
"E  c #DA6B6F",
"W  c #EC7078",
"Q  c #679645",
"!  c #5A827D",
"~  c #768474",
"^  c #689D4F",
"/  c #8F863D",
"(  c #968249",
")  c #AC8F56",
"_  c #9A8469",
"`  c #88847A",
"'  c #998877",
"]  c #979377",
"[  c #A4846B",
"{  c #A68868",
"}  c #A58B74",
"|  c #AC8C72",
" . c #A98475",
".. c #B38D73",
"X. c #B7867D",
"o. c #A9937A",
"O. c #B49375",
"+. c #B49479",
"@. c #B9997C",
"#. c #B08C6C",
"$. c #94B872",
"%. c #AEA379",
"&. c #84AB5B",
"*. c #C4997E",
"=. c #C1867A",
"-. c #C2A974",
";. c #C08D54",
":. c #6B7980",
">. c #907F82",
",. c #DE7587",
"<. c #778C8E",
"1. c #7EAAA4",
"2. c #868A87",
"3. c #958B86",
"4. c #98968B",
"5. c #8B9798",
"6. c #929B9B",
"7. c #999B95",
"8. c #8C928B",
"9. c #AA9987",
"0. c #BC9E82",
"q. c #B49986",
"w. c #A89996",
"e. c #AF8D8B",
"r. c #99A29D",
"t. c #90A896",
"y. c #BCA285",
"u. c #BBA48B",
"i. c #B8A58A",
"p. c #A4A49B",
"a. c #ABA59A",
"s. c #BCAA94",
"d. c #B7A899",
"f. c #BBB29B",
"g. c #AAA991",
"h. c #8F9DA0",
"j. c #99A7A9",
"k. c #8FAAAB",
"l. c #A3ABAA",
"z. c #A8AAA5",
"x. c #B6ABA5",
"c. c #AAB1AB",
"v. c #B4B6AC",
"b. c #B9B6AB",
"n. c #A5AEB3",
"m. c #A9B5B8",
"M. c #BDBDB3",
"N. c #B3BCBC",
"B. c #B6B9B7",
"V. c #BAABB1",
"C. c #BC9BA2",
"Z. c #C68C88",
"A. c #D58885",
"S. c #C79C89",
"D. c #CA9798",
"F. c #D1928E",
"G. c #E38787",
"H. c #C3A58C",
"J. c #C3AA8C",
"K. c #C7A688",
"L. c #C4AC93",
"P. c #CCAE93",
"I. c #C9A896",
"U. c #CCB294",
"Y. c #C4B39C",
"T. c #C9B499",
"R. c #D2B59B",
"E. c #C4B68C",
"W. c #C8ABA8",
"Q. c #C5BBAB",
"!. c #C7B9A5",
"~. c #D5BAA4",
"^. c #C7B5B4",
"/. c #CBB0B4",
"(. c #BCC2BB",
"). c #BAC5AC",
"_. c #D1C491",
"`. c #CDC3AB",
"'. c #C7C3A9",
"]. c #D4C3AB",
"[. c #C4C1B7",
"{. c #C3C4BA",
"}. c #CBC9BE",
"|. c #CBC5B7",
" X c #D5CAB4",
".X c #D4CDBD",
"XX c #D7CAB6",
"oX c #DBD2BB",
"OX c #C7D3BB",
"+X c #E4D8BE",
"@X c #B0BEC2",
"#X c #B6C2C4",
"$X c #BBC4C4",
"%X c #BCC7C9",
"&X c #B7C9CD",
"*X c #BDCBCE",
"=X c #B7C6C6",
"-X c #BFCDD0",
";X c #B8CBCE",
":X c #C3C4C3",
">X c #C2CAC5",
",X c #CBCCC3",
"<X c #C2CDCD",
"1X c #CACECB",
"2X c #C5C5C7",
"3X c #D2CDC2",
"4X c #D7CBC9",
"5X c #CCD2CD",
"6X c #CAD2C8",
"7X c #D4D1C5",
"8X c #DBD4C4",
"9X c #D4D5CB",
"0X c #DAD5CA",
"qX c #DCD9CD",
"wX c #D8D8CC",
"eX c #C3CED1",
"rX c #C6D1D3",
"tX c #CBD4D4",
"yX c #CFD8D6",
"uX c #CBD6D9",
"iX c #CED9DB",
"pX c #D2D6D3",
"aX c #D4DAD5",
"sX c #DBDCD4",
"dX c #D3DCDB",
"fX c #DADED9",
"gX c #DCD6D2",
"hX c #E2DBCD",
"jX c #E5DAC5",
"kX c #E2DED3",
"lX c #E0DFDE",
"zX c #DEE0D6",
"xX c #DCE1DA",
"cX c #D6E0DD",
"vX c #E3E1D6",
"bX c #E9E3D6",
"nX c #E4E4DB",
"mX c #EAE5DA",
"MX c #ECE8DD",
"NX c #EDE8D7",
"BX c #F1EBDE",
"VX c #EAE1CE",
"CX c #D4DEE1",
"ZX c #D6E0E2",
"AX c #D8E2E4",
"SX c #F2ECE2",
"DX c #EFECE3",
/* pixels */
"-X-X*X*X*X-X*X-X*X<X-X*X*X*X*X-Xh.j.eX;X*X*X;X*X*Xh.@X*X*X%X;X*X*X&X@XrX;X@X-X;X;X&X&X*XrXCX@X@XAXCXiXuXCXCXCXuXuX*XuXuX-XuXuXuX",
"-X-X*X-X-X*X-X*X-X*X*X-X<X-X*X-X@Xm.-X-X*X*X*X*X*X@X@X*X*X%X*X*X*X*X*XeX;X;X;X-X&X;X;X&X;X-XrXrXCXCXCXuXrXeX-XuXuXiXCXCXCXuXuX-X",
"-X-XeX-X*X-X-X-X*X*X-X*X*X-X*X*X-X-X*X*X*X*X*X*XeX5.n.-X*X*X*X*X@X*X*X@X;X;X;X;X;X;X;X;X@X@X@XeXuXuXuXuX*XuXCXCXCXCXCXCXCXCXCXuX",
"-X<X*X-X-X-X-X-X-X-X*X-X-X*X-X*XeX*X*X*X*X*X*X*X-X@Xm.-X;X%X*X*XeX*X*X-X;X;X;X;X;X;X;X-X-X5.@X*X@X;XeXuXCXCXCXCXCXCXCXCXCXCXCXCX",
"-X-X-X-X-X-X-X-X-X-X-X-X-X-X*X-X-X*X-X-X*X*X*X*X-X@X5.*X*X*X*X*X;X-X@Xn.;X;XeXrXrXrXeXrXrXeXh.5.-X-XuXCXAXCXCXCXCXCXCXCXCXCXCXCX",
"<X<X<X*X<X-X-X<X-X-X-X-X-X-X-X-X*X*X*X*XeX*X*X*X-XeXm.@X*X*X*X*X-X-X-Xh.@XuXCXCXCXCXCXCXCXCXuX$X-X;X@XCXCXAXCXAXCXuX@XCXCXCXCXCX",
"rX<XrXrX<X<X<X<X<X<X<X-X-X-X-X-X*X-XeX*X*X*X*X<X-X;XeX*X*X*X*X*X-X;X;X-X@XCXCXCXCXCXAXCXAXAXAXAXuX@XuXCXCXCXAXCXCXuXj.@XCXCXCXCX",
"<XrXrX%X*XeXeX<X<X<X<X>X-X<X-X-XeXeXeX<X*X*X*X*X-X-X-X*X*X*X-X*X-X-X-X;XuXCXCXAXAXAXAXCXAXAXCXAXiX-X@XuXCXAXCXAXCXCXCXCXCXCXCXCX",
"eXeX@XN m.rXeXeX<X<X-X<X<X<XrX*X2.j.rX<X<XeXeXeX-X-X-X*X*X-X-X*X-X*X-X*X-XCXZXAXAXAXAXAXAXAXAXAXCXrX@XeXiXCXCXCXCXuXCXAXlXCXCXCX",
"eXrX%X8.l.eXeXeX<XrXrX-XrX<XrXrX5.6.rXeXeX*XeXeX-X-X-X-XeX*X*X-X*X-X*X*XrXCXZXAXAXAXAXAXAXAXAXCXCXiXeX*X2XuXCXCXCXlXCXCXCXCXCXCX",
"eXrXeXuXeXeXrXeXtX-X<XrXrX<X-X<X*X5.%XeXeXeX@Xm.eX#X@X1X*X<X<X<XeXeXeXeXeXdXAXAXAXAXAXAXAXAXtXtXCXCXeX*XeXeXeXiXCXCXCXAXCXCXuXeX",
"rXeXtXeXrXeXrXeXrXrXrX(.*XrXrXrXtXeX%X$XeX<X@X@XeXeXn.<X<X<XeX-XeXrX@XeXrXiXZXAXAXAXAXAXAXAXuXiXCXCXrX*XeXCXCXuXCXCXAXAXCXCXuXuX",
"rXrXrXrXtXrXrXrXrXrXrX%X%X*XeX<X@X<XeX@XeXeX1XrXeXeXeXeXeXeX1X1XeXeXrX1XrXuXdXAXAXAXAXCXAXAXAXAXCXAXCXeXeXiXCXCXCXAXAXAXCXCXCXCX",
"rXuXrXrXrXrXrXtXtXtXrXtXrXrXrXtX6.#XtXrXrXeXeXrXeXeXeXeX$XN.tX9XpX4XpXgXpXpXaX<XrXAXCXCXCXAXAXAXAXCXCXrXeXuXCXCXAXAXAXAXCXCXlXCX",
"rXrXrXrXtXtXtXrXrXrXtXrXtXrXrXtX<X5XrXrXrXrXrXrXrXrXrXrXn.2.7XhXhXjXjXkXjXqXqX}.5.tXAXdXiXAXAXAXlXCXCXuXeXrXCXAXAXAXAXAXCXCXCXCX",
"tXtXrX2X<XrXrXtXrX5XrXtXtX5XeX<XtXtXrX2XtXtXtX@XrXtXrXrX{.,XhXjX8XjXoX`.`.`.'.|.:XdXCXdXuXCXZXAXAXCXCXCXrXrXCXAXAXAXAXCXAXCXCXCX",
"N.1XtXrX1XeXtXuXrXtXtXtX5XrXtXrX5XtXtXtXtXtX<Xl.rXrXtXrX9XwXhXjXjXoX Xf.!.Q.Q.d.^.uXdXdXtXdXAXpXdXAXAXCXrXeXuXZXAXAXAXAXAXCXCXuX",
"2.l.yXtXeXtXrXrX5XtXtXrXtXtXtX5XrXtXrXtXtXtXtXrXrXtXtXtX9XsXjXjX+XXX`.Q.Q.Q.|.Q.a.M.#X6.eXdXdX6.2XAXCXCXtXeXuXCXAXAXAXAXAXAXCXrX",
"$X@Xl.n.tX5XtXtXtXtXtXtXyXyXyX2X2XtXtXrX%X$XtXtX5XtXtX5X9XwXjXjX+XXX`.Q.|.!.Q.!.f.g.B.6.tXCXdX<XrXlXCXCXrXeXrXdXAXAXAXAXZXZXdXrX",
"uXpX1X$XtXtXtXrXyXtXtXrX(.rXtX1X^.aXdXtXtX(.tXm.m.yXtXaXaXwXhXbXoX XQ.!.Y.~.Y.u.9.9.z.dXcXCXZXAXCXCXCXCXuXrXtXuXCXAXAXCXZXZXiXuX",
"tXtXaXtXtXtXyX6.$XiXtX%X<.2XtX4X^.M.N.tXtXyXyX<Xm.tXyX5XwXsXbXXXY.i.o.9.u.W.P.#.S d ` rXdXcXCXAXCXCXCXCXtXrXtXuXiXZXZXAXdX%XyXj.",
"tXtXtXtXpXtXpXc b rXaXtXtXpX:X^./.>.l.$XaXtXtXyX5XrXyXyX5XhXXXE.o.o.} @.R.].~.S.H 1 u <Xj.tXdXdXCXCXCXdXtXtXtXtXiXcXdXyXyXl.tXN ",
"yXtXtXyXpXtXtXN.l.5XtXiXtXpX:X/./.>.N.tXtX>Xn.aXyXyXaXaXzX8X].@.=.[ _ 0.R.~.~.H.T d l aXrXaXiX(.dXCXCXdXuXtXtXtXyXiXiXrXiX5XtX>X",
"pXtXtXaX<X5X>XdXaXtXr.$XyX>X:XV./.e.c.iX>XyXN.eXaXyXyXaXqXoX X~.K.+.| K.q.g d [ H P I dXdXdXdXyXfX2XdXdX#XN.tXtXyXyXtXyXyXiXtXiX",
"(.r.aXyX2Xl.r.tXpXpX>X>XcXr.8.V.e.C.7.uX1XdXz.2XN.1XgXfXjX8XjXXXP.*.q.d.0.d 7 o.h ; 2.dXpXyXaXyXaX6.m.dX<Xc.yXyX%X(.yXyXyXyXyXyX",
"j.r.5XyXrX<XyXyXpXuXiXdX5X-X|.d.>.C.>.B.<.pX6.c.@X1XfX0XXX8XoXhX~.O.4.h.w.e.D.I.a @ c.aXpXtXtXdX$Xl.j.6XyX<XtXyXrX%XcXyXaXyXdXaX",
"pXdXaXyXpXaXuXgX5X6X(.$XOXOX).) z W.>.V.7.2XfXdXdXfXwX7X.XqX8XvXoXL.[ 9.7.6.r.S.D s :XiXtXtXtXtXrX>X%X<XdXc.5.pXdXdXcXaXaXyXdXyX",
"aXyXpXaXaXaXaXdXOX).4.b b ~ ~ m h U L z.CXdXgXfXdXsXwX8X8XsX9XqXXXS.+.H.q.9.d. .9 L tXpXtXpXpXtX5XyXyXyXaX:Xz.yXcXaXcXaXcXcXcXcX",
"aXdXaXaXdXgXdXfX>Xf.4.j j j l m f G P 4.dXaXaXdXaXaXwX0X9XsX7XpX!.{ O.S.+.#.T K y 4.pXtXyX5XyXtXyXyXyXaXaXaXxXcXcXcXxXxXcXcXcXcX",
"pXgXpXpXaXaXaXaXaX%Xr.4.~ j t t f f n n 2XdXaXpXaXgX8X9XpXsX6XxXL.D k ..*.X.F 9 I [.1XpXyXyXtXyXyXyXaXaXcXaXxXcXxXcXxXAXxXcXxXxX",
"pXaXpXaXaXdXpXaXaXaXxXcX=X1.b u f i N u 3.CXaXdXv.{..XpXpXsXpX7X .D d 9 P F 9 L ,X}.OXyXyXyXyX5XyXyXaXzXaXzXxXxXxXxXxXxXxXxXxXxX",
"dXaXaXaXaXaXaXaXcXaXaXaX=Xk.N r * c p f n yXfXaXtX7X.XsX9X5XaX!._ P d 0 4 2 I 0XaX,X,XaXaX5XyXyXaXaXaXcXzXxXxXxXnXxXnXnXnXnXnXxX",
"aXaXaXaXaXaXsXdXaXwXyXcX=X1.! v v v w h f m.fXfXaX9X.XsXaX3X'.{ [ | { S 1 ; x.nXaX9X,XyXtXpXyXyXaXaXzXzXfXxXxXnXnXAXMXlXAXnXlXAX",
"gXwXaXgXsXaXaXaXcXaXaXcXyX1.<.v v B w w n 7.fXsXsXwX3X7X4XY.G _ ..@.K.F 0 0 z 7.B.{.6XfXyXpX9XaXaXzXaXaXfXvXnXnXnXnXnXAXDXnXnXDX",
"aXaXpXfXsXaXaXsXaXaXaX6XcXt.! v e p u % 4.5.tXxXsX|.f.s.i.@.{ O.#.O.y.[ G G k s t t l z.aXyX5XaXsXfXxX6X1XnXnXnXnXMXnXMXnXnXxXsX",
"aXsX:XpXsXsXaXsXcXwXaXyXdX] l 5 & : i M z.:XfX7Xw. .{ { | o.O.U.T.u.9.g.e.| H D ' ` n 7 w.aXaXaXaXsXxXsXfXnXnXnXnXlXlXnXnXnXnXnX",
"aXsXaXgXsXsXaXaXsXwXaXaXqX%.) / C k oXxXxXxXsX` z P +.+.=.A...K.].].Y.L.s.i.q.z 4.M.a.L m sXaXsXpX5XfXnXnXnXnXAXnXAXnXnXDXAXDXnX",
"gXaXsXaXaXxXsXsXzXcXsXaXwXE./ C 0 i.qXzXgXlXz.6 u G o.K.-.K.=.O.Y.'.].`.R.`.!.L i.s.O._ ` 6X9XaXsXfXfXvXnXnXnXnXnXnXnXnXnXnXxXnX",
"aXsXgXaXaXqXzXqXaXzXaXsXcXOX9.L u OXxXzXsXpXb f } 0.H.P.P.P.F.#.y.f.Y.Y.Y.!.U.{ o.{ { ( H b.6XsXsXkXfXnXxXnXnXnXnXMXnXnXnXnXgXnX",
"gXwXsXsXqXaXaXaXzXqXaXzX(.%.q._ u v.zXzX2Xp.<.7.p.O.@.K.P.U.P.S.Z.-.i.s.f.s.O.) ( k ( ) ) o.wXsXsXsXlXvXnXnXnXMXMXnXDXnXnXnXnXnX",
"sXsXsXsXsXsXsXgXsXsXsXlX).&.$.^ Q t.AXsXgXz.5.j.n.w.F F [ @.K.K.G.G.S.T.!.!.y.J C 0 C ) ;.) y.sXsXsXxXvXnXnXmXmXnXMXnXnXnXnXnXnX",
"aXsXsXsXsXsXsXsXkXsXsXaXwX$.Q Q 8 m nXvXx.Y w.j.r.3.s S { #.K.S.G.W F.!.Q.!.q.J 0 4 0 / ) #.} 8XsXsXvXvXnXnXDXMXMXnXNXnXnXnXnXnX",
"qXsXzXsXsXsXxXsXsXsXsXsXxX X_ _ z z sXQ.M w.D.D.4.n 9 P J.J.O.W W W G.f.x.s.9.H Z 3 3 Z R ;. .Q.zXsXlXbXnXMXMXMXMXmXnXnXnXnXnXnX",
"zXsXsXzXsXsXsXsXfXsXsXfXxXoX_.E.%.{ Q.L L n.V.D.Y I P 0 @.U.*.E W W T 0.s.i.] } J C Z Z ;.) H.g.vXvXvXnXmXmXMXMXmXnXnXnXnXnXnXnX",
"sXvXvXsXsX9XqXsXsXsXkXvX^.i._.R.E.%.x 1 Y z.j.3.A ^.!.P P H.F.,.E E T s.i.o.] _ _ P #.@.J.L.'.f..XvXvXmXmXmXNXmXMXnXvXvXnXnXnXnX",
"sXsXsXsXzXsXwXzXsXzXkXnXW.T T T #.L . , U } 3.M K /.I.L.T ,.F.,.E T [ J.| } } } } i.i.Y.Y.f.q.s.f.kXvXbXmXnXnXmXnXNXvXbXvXvXvXvX",
"sXvXsXvXsXsXsXzXvXvXsXvX.XZ.E T A = . , U K f 2.7XkXi.U.S.F.D.e.E T f.f.} i.o.o.9.i.E.y.F V 2 9 L 0XbXvXnXNXbXbXNXnXbXvXvXzXVXzX",
"sXsXsXsXvXsXvXzXsXvXxXxXW.q.W.F.T 9 x 6 P f L pXvXlXQ.0.I.Z.Z. ._ ]. X@.y.J.o.9.s.s.P 7 2 2 = 9 !.MXvXmXNXnXvXvXbXbXvXvXvXVXvXhX",
"vXzXsXzXsXvXzXzXsXvXzXzXd.e.I.I.T D 7 > P L 7XxXzXzXvX`.+.q.S.q.~.oXY.y.E.i.i.f.q.z 4 1 2 = ; ] kXbXvXmXmXmXbXbXvXkXkXhXhXkXkXgX",
"qXzXzXkXsXvXvXzXzXvXvXzX^.U e.Y Y h @ f o.wXnXzXzXzXzXsXb.|..X X`.`.Y.T.L.y.} S d d 0 9 2 @ z hXkXbXbXmXmXmXvXkXkXbXhXqXjXqXhXkX",
"vXsXvXzXzXsXvXvXvXzXnXnXnXa.g D A a y g.zXnXnXnXvXsXzXsXhXoXoX X].`.U.%.@.| P [ | @._ d = = {.MXbXbXbXMXmXmXmXkXbXkXhXqXqXhX0X7X",
"qXzXzXvXvXzXzXnXnXvXnXvXnXmXx.g K h d.MXnXvXzXvXvXzXvXvXsX.XoX].E.@.@.@.U.@.+.+.u.y.[ 0 + 5 ^.SXbXbXkXbXmXMXMXbXkXjX8X4X}.}.3X3X",
"qXsXzXvXvXxXvXvXmXnXNXnXmXvXnXV.L e.nXnXvXvXbXvXbXvXvXvXvXvXjXu.#.-.P.P.P.K.y.H.L.0._ 1 ; 1 w.DXmXNXbXkXNXmXmXbXhX7X.X^.Q.}.,X,X",
"xXvXnXxXvXbXmXmXlXmXnXnX9X{.v.p.z.|.nXnXmXbXnXvXbXnXvXvXvX8Xy.O.O.H.K.H.P.U.P.I.s.u._ 4 2 a L 9XSXNXNXmXkXbXbXbXkX0X.Xb.v.{.{.|.",
"mXmXnXmXnXvXqX9X|.sXnXvX).p.r.4.8.w.nXmXmXvXbXnXbXnXMXMXbX].y.q.o.f.d.H.R.~.~.I.L.L.H 1 1 a n .XSXSXBXMXMXmXkX4.I ` M 5 5 ` v.M.",
"v.v.v.,Xv.p.t.b.7XqXsXqX,Xr.z.a.2.4.nXMXMXmXnXbXMXqXM.p.oXY.0.+.@.p.j.`. X~.R.H.H.L.D ; 1 a g w.SXSXSXSXSXmXW.l > > : # # + $ y ",
"c M M ` 4.v.[.wX9XgXqXqXaXc.v.b.7.7.}.vXkXvXbXbX7X8.f l !.I.H.s.'.v.7.'. X~.R.O.0.H.k 2 1 h f U SXSXMXkXhX0X3.t > > : & @ # . = ",
"b i b b c.{.,X(.}.6XzXqXqX.X7XqX{.x.b.}.{.7X7X.X` m u b a.9.q.C.f.9.4.b.R.~.P._ H.O.a - % e q p gXBXbXjX.X|.L 7 6 , $ @ # # o 1 ",
"r r m b ` (.,X,XM.{.qX7X9X9X7X[.7X}.M.(.M.a.` ] 4.u l M.c.r.5.>.o.o.z.!.R.U.S.O.S.H ; @ * q q p ^.NXhX8X|.p.7 s > & # @ # + o h ",
"B B p p < z.{.3XsXOXz.` M ` ` ` b.}.M.4.m b l ` ` ~ }.(.m.j.n.k.t.4.9.L.P.K.@.#...D = = , w y h 9.oXjXjXx.x 6 5 : $ + O o o   A ",
"p p q q q u b 4.w.b.I f u t u b M 4.` l z u 7 u , x.yX(.j.n.n.k.k.j.5.' } O.| [ [ d ; ; s 7 t t s 6 ' f z s > > & @ # + o . . X.",
"r q r p > @ = : l z 7 u f t t r r r 5 t 5 , 5 - s aX#X#X5.1.m.k.k.k.k.5.` ` m z s 6 - - , z > 4 s + . . y 4 ; 5 % % % o o   = A ",
"6 > % r y x a y f 4 1 i p u t r & % & f 5 : > > j.-X#X@X5.n.@Xk.5.<.k.r.8.t.` l 5 % # @ @ a 3 0 k 4 .   = 9 - $ @ # # # # . 1 V ",
"s $ + + - 6 z s - @ w w : > r & & & $ 5 t t 7 z aX&X@Xm.h.j.@Xj.:.<.<.6.t.8.2.~ i w w r @ > 8 0 / d     + #     & % > = o # V V "
};
